<?xml version="1.0" encoding="UTF-8"?>
<svg id="Capa_2" data-name="Capa 2" xmlns="http://www.w3.org/2000/svg" viewBox="0 0 249.86 239.71">
  <defs>
    <style>
      .cls-1 {
        fill: #02eafa;
      }

      .cls-2 {
        fill: #ea191e;
      }

      .cls-3 {
        fill: #35eefc;
      }

      .cls-4 {
        fill: #01bb02;
      }

      .cls-5 {
        fill: #42f3fd;
      }

      .cls-6 {
        fill: #21ebfb;
      }

      .cls-7 {
        fill: #004fbf;
      }

      .cls-8 {
        fill: #0155d4;
      }

      .cls-9 {
        fill: #00b602;
      }

      .cls-10 {
        fill: #00b104;
      }

      .cls-11 {
        fill: #0039a8;
      }

      .cls-12 {
        fill: #005bd7;
      }

      .cls-13 {
        fill: #0067d3;
      }

      .cls-14 {
        fill: #fff;
      }

      .cls-15 {
        fill: #0073e9;
      }

      .cls-16 {
        fill: #0040b1;
      }

      .cls-17 {
        fill: #005ac9;
      }

      .cls-18 {
        fill: #0064de;
      }

      .cls-19 {
        fill: #006be3;
      }

      .cls-20 {
        fill: #0041af;
      }

      .cls-21 {
        fill: #f5f8fb;
      }

      .cls-22 {
        fill: #e4181d;
      }

      .cls-23 {
        fill: #0060cf;
      }

      .cls-24 {
        fill: #007bf0;
      }

      .cls-25 {
        fill: #0094d9;
      }

      .cls-26 {
        fill: #006bdd;
      }

      .cls-27 {
        fill: #f51b20;
      }

      .cls-28 {
        fill: #0063d6;
      }

      .cls-29 {
        fill: #006ae5;
      }

      .cls-30 {
        fill: #55f3fd;
      }

      .cls-31 {
        fill: #0060c6;
      }

      .cls-32 {
        fill: #0044b4;
      }

      .cls-33 {
        fill: #01c4f4;
      }

      .cls-34 {
        fill: #002fa3;
      }

      .cls-35 {
        fill: #34363b;
      }

      .cls-36 {
        fill: #0080ce;
      }

      .cls-37 {
        fill: #0065e0;
      }

      .cls-38 {
        fill: #0062d1;
      }

      .cls-39 {
        fill: #005fcb;
      }

      .cls-40 {
        fill: #004dba;
      }

      .cls-41 {
        fill: #0060d9;
      }

      .cls-42 {
        fill: #fe2124;
      }

      .cls-43 {
        fill: #0061d9;
      }

      .cls-44 {
        fill: #f91d21;
      }

      .cls-45 {
        fill: #0066d5;
      }

      .cls-46 {
        fill: #f01a1e;
      }

      .cls-47 {
        fill: #0046b6;
      }

      .cls-48 {
        fill: #030405;
      }

      .cls-49 {
        fill: #0038ab;
      }

      .cls-50 {
        fill: #0039ad;
      }

      .cls-51 {
        fill: #0e1119;
      }

      .cls-52 {
        fill: #003eb1;
      }

      .cls-53 {
        fill: #00d1f3;
      }

      .cls-54 {
        fill: #0069cb;
      }

      .cls-55 {
        fill: #6ff4fd;
      }

      .cls-56 {
        fill: #0035a8;
      }

      .cls-57 {
        fill: #003dae;
      }

      .cls-58 {
        fill: #004bb9;
      }

      .cls-59 {
        fill: #2b2d2e;
      }

      .cls-60 {
        fill: #00ecde;
      }

      .cls-61 {
        fill: #0035ac;
      }

      .cls-62 {
        fill: #0055c5;
      }
    </style>
  </defs>
  <g id="Layer_1" data-name="Layer 1">
    <g>
      <path class="cls-14" d="M197.2,143.9l-.59-.59s-32.19,2.91-39.03-25.81,9.48-32.27,22.15-34.15c12.67-1.88,33.52,2.4,35.47,8.04"/>
      <path class="cls-48" d="M249.86,45.99c-1.89,1.32-3.96,2.07-6.05,2.81-2.02.71-3.96,1.63-5.98,2.35-2.68.95-4.6,2.87-6.27,5.01-1.88,2.42-3.66,4.93-5.28,7.52-1.27,2.04-2.27,4.25-3.33,6.41-.73,1.5-1.47,3-2.03,4.57-.85,2.35-1.46,4.79-2.34,7.13-.96,2.53-1.96,4.98-2.34,7.72-.33,2.33-.94,2.27-3.12,1.04-2.58-1.46-5.31-2.65-8.09-4.17.92-3.52,1.94-6.83,3.06-10.23.68-1.68,1.26-3.26,1.96-4.91,1.52-2.97,3.25-5.67,5.3-8.32,3.47-3.41,6.84-6.74,10.33-10.13.82-.6,1.52-1.14,2.38-1.81-3.45-1.68-6.58-3.21-9.98-4.87.75-.25,1.21-.41,1.8-.56.31-.06.48-.12.83-.17,9.45,0,18.72-.01,28.14-.02.44,0,.73,0,1.02,0v.64Z"/>
      <path class="cls-43" d="M.43,0c1.53.64,2.84,1.38,4.23,1.89,6.81,2.47,13.64,4.87,20.46,7.31.52.19,1,.48,1.52.84-.85.12-1.73.06-2.6.14-.75.06-1.7.03-2.18.47-2.47,2.25-4.79,4.66-7.21,6.96-.5.48-1.44,1.17-1.81.99-2.08-.99-3.97-1-5.79.49-1.76-2.98-3.79-5.83-5.19-8.97C.85,7.87.69,5.25,0,2.73-.02,1.78.11.89.43,0Z"/>
      <path class="cls-29" d="M29.38,239.71c-.75-.13-1.32-.34-1.89-.36-3.4-.16-6.8-.27-10.2-.42-.28-.01-.56-.19-1.07-.37,7.75-7.55,15.38-14.97,23.24-22.39,1.63.72,1.82,1.64.76,2.83-.42.47-.86.96-1.12,1.51-.56,1.17-1.43,2.39-1.42,3.59.03,2.46-1.06,4.19-2.66,5.81-2.45,2.48-2.75,5.59-2.67,9.06h3.76c-.13.18-.26.35-.41.64-2.06.11-4.1.11-6.32.11Z"/>
      <path class="cls-51" d="M249.86,45.22c-.29.13-.59.13-1.11.01-1.3-.66-2.38-1.21-3.46-1.75,1.43.34,2.85.68,4.42,1.06.14.21.14.38.14.68Z"/>
      <path class="cls-42" d="M156.81,104.19c.6,9.02,4,16.98,9.45,24.06,6.37,8.29,14.56,13.67,25.15,14.83,1.78.2,3.6.03,5.41.03.13.26.26.52.39.79-3.44,3.33-6.89,6.66-10.59,9.97-.65-.2-1.04-.52-1.46-.56-3.6-.31-7.21-.58-10.82-.85-.18-.01-.37.11-.56.1-1.31-.01-2.71.27-3.9-.11-4.28-1.39-8.52-1.55-12.88-.47-1.25.31-2.77.35-3.96-.07-2.78-.98-5.63-.56-8.22-.04-3.42.68-6.39.09-9.29-1.36-1.38-.69-3.43-1.36-2.36-3.83.14-.33-.49-1-.76-1.65.2-.45.34-.8.58-1.06,8.91-9.19,15.61-19.84,20.7-31.54,1.1-2.53,1.85-5.22,2.8-7.92.1-.19.19-.28.31-.33Z"/>
      <path class="cls-34" d="M156.85,104.06c-.16.18-.25.27-.46.55-2.65,2.41-5.02,4.83-7.68,6.86-11.77,8.99-25.1,13.53-39.94,13.6-.74,0-1.47.25-2.21.38,0,0-.04-.02-.04-.18-.4-1.14-.23-1.77.98-1.78.76,0,1.52.02,2.27-.01,3.05-.14,5.78-.94,7.61-3.81.46.02.78.03,1.08.1.92.2,1.95.33,1.93-.95,0-.38-1.08-.86-1.74-1.06-.81-.25-1.7-.27-2.6-.51-1.29-1.61-2.52-3.1-3.76-4.75,0-2.89-.02-2.83,2.52-2.1,2.19.63,4.45,1.23,6.39-1,1.13,0,2.09-.09,3.03.02,2.13.26,3.84-.24,4.97-2.36,1.18-.28,2.23-.52,3.44-.75,1.07,0,1.97,0,3.04,0,1.37,0,2.58.07,3.76-.03.35-.03.65-.52.98-.8-.32-.22-.63-.62-.95-.64-1.32-.07-2.64-.02-4.13-.02-1.07.01-1.97.02-3.03.02-1.19.14-2.21.3-3.36.52-1.26.87-2.32,2.19-3.54,2.35-2.05.27-4.19-.19-6.28-.5.85-.78,1.61-1.79,2.54-1.97,2.44-.46,4.09-1.71,5.23-3.92.56-.11.99-.2,1.56-.28.96-.64,1.78-1.28,2.7-2.02.86-.38,1.61-.88,2.38-.91,2.56-.1,5.12-.03,7.85.03,1.34.03,2.5,0,3.84.02,1.44.06,2.71.06,4.15.11,2.36.03,4.55-.02,6.73.07.55.02,1.07.51,1.61.79-.27,1.6-.54,3.2-.85,4.93Z"/>
      <path class="cls-37" d="M80.84,172.46c-1.7,4.83-3.54,9.56-5.34,14.31-.52,1.37-1.03,2.74-1.53,4.11-.16.43-.31.87-.48,1.3-.67,1.8-1.33,3.6-1.99,5.41-.11.18-.22.35-.34.55-.02,0-.02.01-.02.02-.14.2-.29.42-.48.68-.46.78-.76,1.39-1.18,2.05-1.97,2.1-3.79,4.18-5.7,6.19-1.58,1.66-3.25,3.24-4.91,4.69-.02-.41,0-.67-.02-.92-.1-1.93-1.23-3.14-2.87-3.11-1.69.04-2.81,1.43-2.7,3.44.05.88.19,1.76.2,2.74-.73,3.8-2.42,6.91-5.39,9.4-1.08.51-2.03,1-3.11,1.51-3.15,1.22-3.9,2.17-3.9,4.77,0,0,.02.04.13.14.19.18.26.26.37.41.22.45.4.81.52,1.29-1.03,1.7-1.99,3.29-2.96,4.86,0,.01,0,.01,0,.02,0,0,0-.01-.01,0-.02-.02-.04-.02-.07,0-.19.08-.27.16-.32.28-.4.37-.79.74-1.2,1.13-.42.38-.85.77-1.31,1.18-1.3.06-2.49.06-3.87.06-.08-3.48.22-6.58,2.67-9.06,1.59-1.63,2.69-3.35,2.65-5.81-.01-1.19.86-2.42,1.42-3.59.27-.56.71-1.04,1.13-1.51,1.05-1.19.86-2.11-.65-2.88,4.52-4.87,9.18-9.68,13.81-14.51,4.75-4.97,9.48-9.95,14.19-14.95,3.1-3.3,6.15-6.65,9.21-9.97,1.32-1.44,2.62-2.88,4.06-4.23Z"/>
      <path class="cls-9" d="M89.77,160.4c2.1-3.42,4.21-6.84,6.3-10.26.13-.21.2-.44.55-.66.8.28,1.64.43,1.87.88.99,1.93,2.78,2.08,4.57,2.41,3.91.73,7.52.47,9.71-3.4.92-1.63,2.2-2.61,3.79-3.22,3.08-1.19,5.42-3.1,6.93-6.08.29-.57,1.08-.89,1.66-1.15.05,4.32.07,8.46.09,12.61-5.73,5-11.46,10-17.46,15.01-1.96-.78-3.66-1.55-5.32-2.39-.34-.17-.56-.6-.75-1.02.72-.81,1.58-1.41,1.92-2.24.24-.57-.23-1.44-.39-2.18-.62.36-1.34.63-1.85,1.11-.78.74-1.33,1.73-2.13,2.43-.9.78-1.98,1.35-3.12,2.01-.9-.39-1.7-.72-2.41-1.18-1.34-.86-2.64-1.78-3.95-2.68Z"/>
      <path class="cls-49" d="M58.9,211.93c1.63-1.61,3.31-3.19,4.88-4.85,1.9-2.01,3.72-4.09,5.7-6.01.1,7.55.07,14.98.06,22.41,0,.96.09,1.92.14,2.88-1.96,2-3.68,4.38-5.97,5.89-1.62,1.07-4.01,1.02-6.08,1.35-1.48.23-2.98.27-4.76.27-1.06-.23-1.84-.33-2.3-.4-.21-1.47.06-3.13-.63-3.77-1.3-1.22-1.7-2.65-2.07-4.27.14-.17.25-.23.49-.3,3.85-2.22,5.48-5.8,6.64-9.82.47-.32.84-.56,1.23-.62.02,4.02.03,7.85-.02,11.8-.52.51-.98.91-1.6,1.46.72,1.03,1.39,2.01,2.1,3.04,2.02-2.19,2.16-2.91,1.06-4.77-.03-4.17-.06-8.15-.06-12.26.41-.75.79-1.37,1.18-2Z"/>
      <path class="cls-44" d="M132.4,145.17c.28.51.91,1.18.77,1.52-1.07,2.47.97,3.14,2.36,3.83,2.9,1.45,5.87,2.04,9.29,1.36,2.59-.51,5.44-.94,8.22.04,1.19.42,2.71.37,3.96.07,4.37-1.07,8.61-.91,12.88.47,1.19.38,2.59.1,3.9.11.19,0,.37-.12.56-.1,3.61.27,7.22.53,10.82.85.41.04.8.36,1.34.61-4.35,3.23-8.84,6.4-13.46,9.46-.28-.63-.32-1.23-.61-1.65-.35-.49-1.2-.75-1.34-1.25-.42-1.49-1.6-1.69-2.77-1.93-1.72-.35-3.46-.68-5.2-.89-2.12-.26-4.28-.64-6.38-.49-3.25.22-6.47.84-9.71,1.29-.25.03-.52.08-.75.02-2.36-.62-4.69-1.38-7.07-1.86-1.82-.37-3.74-.68-5.56-.48-2.25.25-4.44,1.04-6.69,1.61-.16-.66-.25-1.03-.33-1.4.66-2.22,1.32-4.45,2.1-6.87.19-.52.26-.83.41-1.2.16-.18.24-.29.4-.44.17-.1.24-.19.39-.35.9-.81,1.69-1.56,2.48-2.31Z"/>
      <path class="cls-8" d="M207.98,76.24c-1.03,3.31-2.05,6.62-3.09,10.08-8.06-2.63-16.33-3.52-24.98-2.95-2.21-1.98-4.23-3.81-6.32-5.75-2.83-2.32-5.59-4.52-8.2-6.75,1.03-.26,1.97-.81,2.8-.68,3.08.47,6.12,1.14,9.17,1.77,3.13.65,6.24,1.36,9.37,1.98,1.23.24,2.49.3,3.74.46,3.9.48,7.79,1.1,11.7,1.37,1.74.12,3.54-.47,5.28-.74.21.47.37.84.53,1.2Z"/>
      <path class="cls-10" d="M96.09,164.4c-.12,4.3-.34,8.44-.56,12.58-1.95,1.72-3.9,3.43-6.01,5.04-.18-1.74-.17-3.41-.24-5.07-.01-.24-.02-.47-.03-.71-.09-1.8-.31-3.6-.48-5.39-.33.02-.67.03-1.01.05-.04,1.1-.08,2.2-.11,3.29-.11,3.29-.23,6.59-.33,9.87-2.6,2.23-5.19,4.45-7.8,6.7-2.62,2.23-5.25,4.49-7.91,6.76.61-1.77,1.24-3.55,1.88-5.34.17-.43.32-.87.48-1.3.5-1.37,1.01-2.74,1.53-4.11,1.8-4.75,3.64-9.48,5.45-14.36,2.84-4.06,5.71-7.99,8.7-11.96,1.08.63,2.08,1.31,3.07,1.97.33.23.66.44,1,.66.18.11.36.22.55.32.57.31,1.17.6,1.82,1Z"/>
      <path class="cls-46" d="M162.2,169.53c-4.98,2.05-9.97,4.1-15.07,6,.61-.65,1.35-1.14,2.08-1.64-.91-1.01-1.62-1.98-2.51-2.74-2.26-1.93-4.83-2.84-7.92-2.8-4.3.06-8.73.07-12.05-3.5-.3-.33-.91-.35-1.32-.61-.37-.23-.66-.59-.99-.9.16-.8.32-1.6.72-2.41.6.18.97.55,1.33.54,4.86-.18,9.71-.55,14.57-.6,2.94-.03,5.89.61,8.84.62,2.63.01,5.26-.58,7.89-.59,1.06,0,2.53.56,3.1,1.37,1.18,1.66,1.89,3.66,2.77,5.49-.51.62-.98,1.19-1.44,1.76Z"/>
      <path class="cls-34" d="M173.66,77.73c2.02,1.83,4.04,3.66,6.08,5.62-3,.9-6.1,1.43-8.99,2.49-5.71,2.1-10.11,5.78-12.55,11.54-.53-.47-.94-1.22-1.36-1.23-2.55-.07-5.11.02-7.83.04-1.43.01-2.68.05-4.09.04-.56-.08-.97-.11-1.37-.3-.26-2.53,1.69-2.97,3.21-3.75,2.61-1.34,2.82-1.94.78-4.07-.97-1.02-.98-1.91-.37-3.06,1.45-.03,2.74-.04,4.19-.01,1.62.04,3.07.04,4.65.13,2.36.09,4.6.09,6.99.09-.05-.77-.08-1.36-.13-2.21-2.47,0-4.79,0-7.08-.14,2.43-.89,4.84-1.65,7.24-2.4.1-.03.23.1.35.11,1.4.09,2.8.24,4.19.24,2.55,0,4.96-.35,6.12-3.12Z"/>
      <path class="cls-11" d="M87.94,203.9c-2.3,2.98-4.59,5.96-6.89,8.93-2.6,3.37-5.19,6.73-7.8,10.09-.31.39-.71.71-1.25.96-.29-.71-.49-1.33-.5-1.94-.02-7.1-.02-14.21,0-21.31,0-.55.2-1.1.3-1.65,1.59-.52,3.18-1.03,4.95-1.41.39,1.69.6,3.25.79,4.98-.03.37-.01.56-.04.75-.29,2.06.97,4.43-1.26,6.16-.14.11.4,1.69.89,1.88.71.28,1.81.13,2.47-.28.36-.23.45-1.82.15-2.02-1.17-.78-.95-1.81-.95-2.86,0-1.52-.03-3.04.04-4.69.25-1.69.41-3.25.58-4.81,1.29-.4,2.59-.8,4.06-1.06.33,1.7.49,3.26.57,4.93-1.43,1.77-1.37,1.99.9,3.91,1.9-2.2,1.92-2.49.3-4.13.1-.69.2-1.24.43-1.77.93,1.15,1.75,2.27,2.48,3.45.12.19-.26.64-.31.99-.04.29.05.61.08.91Z"/>
      <path class="cls-2" d="M149.22,173.88c-.18.12-.37.25-.55.38-.56.37-1.11.77-1.68,1.24-1.66.68-3.29,1.31-4.93,1.9-.55.19-1.1.38-1.65.56-.89.3-1.78.59-2.67.87-2.67.86-5.37,1.67-8.13,2.4.22-.95.5-1.81.81-2.65.1-.28.21-.56.32-.84,1.02-2.67.05-4.27-2.83-4.3-1.82-.02-3.63.39-5.45.51-.09.01-.19-.02-.29-.06-.25-.11-.52-.36-.78-.5.02-.17.03-.35.23-.67.03-.08.06-.16.08-.24.07-.21.14-.4.2-.6.08-.27.16-.54.22-.8.14-.52.26-1.02.37-1.52.39-1.34.78-2.69,1.2-4.07.2-.67.42-1.35.64-2.04.31.14.56.38.81.59.09.07.18.13.27.19.41.26,1.02.28,1.32.61,3.33,3.58,7.75,3.56,12.06,3.51,3.09-.04,5.65.87,7.92,2.8.88.75,1.59,1.73,2.51,2.73Z"/>
      <path class="cls-27" d="M162.34,169.55c.33-.59.79-1.16,1.3-1.79-.89-1.83-1.59-3.83-2.77-5.49-.58-.81-2.04-1.38-3.1-1.37-2.63,0-5.26.6-7.89.59-2.95-.01-5.9-.64-8.84-.62-4.86.04-9.71.41-14.57.6-.36.01-.73-.36-1.22-.62.3-1.48.72-2.89,1.26-4.4.2.27.28.64.44,1.3,2.25-.57,4.44-1.37,6.69-1.61,1.82-.2,3.74.11,5.56.48,2.39.48,4.72,1.24,7.07,1.86.23.06.5.02.75-.02,3.24-.44,6.46-1.07,9.71-1.29,2.11-.14,4.26.24,6.38.49,1.74.21,3.48.54,5.2.89,1.17.24,2.35.44,2.77,1.93.14.5.99.75,1.34,1.25.29.42.33,1.01.47,1.67-.3.37-.61.62-1.09.78-.39.11-.6.3-.81.49-2.84,1.64-5.68,3.27-8.66,4.88Z"/>
      <path class="cls-22" d="M130.74,177.74c-.11.28-.22.56-.32.84-.32.84-.63,1.7-.96,2.63-.03.13-.21.19-.38.11-.29.02-.57.05-.84.08-.72.08-1.42.2-2.11.33.03.04.05.07.08.11.07.11.14.23.22.34-1.74.6-3.49,1.2-5.34,1.83-1.12.38-2.27.77-3.49,1.19,1.31-4.22,2.46-7.91,3.7-11.71.32.07.61.3.87.4.1.04.2.07.29.06,1.82-.12,3.63-.53,5.45-.51,2.88.03,3.85,1.63,2.83,4.3Z"/>
      <path class="cls-16" d="M97.87,191.29c-3.23,4.17-6.46,8.34-9.81,12.56-.1-.15-.16-.34-.2-.52-.01-.11-.02-.23,0-.34.05-.35.43-.8.31-.99-.18-.3-.37-.59-.56-.88-.59-.87-1.22-1.74-1.92-2.74-.09-1.32-.04-2.47,0-3.61,2.99-.96,5.98-1.93,8.96-2.89,1-.32,1.99-.64,2.99-.96.08.12.15.24.23.37Z"/>
      <path class="cls-52" d="M47.84,225.51c.42,1.53.81,2.96,2.11,4.19.69.65.43,2.3.63,3.77.46.06,1.24.17,2.13.37-1.77.37-3.66.6-5.53.93-2.59.46-5.17,1.01-7.9,1.54.83-1.57,1.8-3.16,2.94-4.92,1.35-1.68,2.53-3.19,3.77-4.8.27-.28.5-.46.85-.65.42-.16.71-.29,1.01-.43Z"/>
      <path class="cls-10" d="M101.61,163.21c.27.31.49.74.83.92,1.67.84,3.37,1.61,5.2,2.43-3.09,2.79-6.32,5.55-9.72,8.18-.16-1.71.03-3.32-.18-4.87-.44-3.29.55-5.61,3.87-6.65Z"/>
      <path class="cls-60" d="M128.28,149.35c-.46.34-.92.68-1.4,1.04-.49.34-.99.7-1.52,1.07-.15-4.1-.17-8.24-.18-12.74-.01-.72-.02-1.43-.04-2.13-.04-2.42-.1-4.75-.08-7.09,0-.61.39-1.27.77-1.78.13-.18,1-.11,1.16.11.36.52.66,1.19.68,1.81.01.8-.42,1.61-.42,2.41.03,5.25.1,10.49.22,15.74,0,.09.04.18.09.26.16.25.5.53.71.88,0,.24.01.33.01.42Z"/>
      <path class="cls-33" d="M71.88,223.94c-.46.65-.95,1.23-1.51,1.8-.18.19-.37.38-.57.57-.16-.91-.25-1.87-.25-2.83.01-7.43.03-14.86.05-22.47.3-.78.6-1.39,1.02-2.07.25-.03.46-.02.68-.01.12.01.24.03.37.04.02.31-.03.61-.07.91-.05.25-.09.5-.09.75-.02,7.11-.03,14.21,0,21.32,0,.61.2,1.23.38,1.99Z"/>
      <path class="cls-60" d="M103.62,160.87c-.34.82-1.2,1.43-1.92,2.23-1.11.38-1.97.88-2.59,1.49-.34.33-.61.68-.81,1.07-.12.2-.22.41-.3.63-.24.65-.35,1.38-.35,2.18,0,.44.04.91.1,1.39.03.25.05.5.07.75.01.1.01.21.01.32.01.23.02.47.02.71,0,1-.06,2.04-.04,3.14-.49.62-1,1.13-1.57,1.64-.19.17-.38.34-.59.52.1-4.1.32-8.24.59-12.53.78-.61,1.57-1.09,2.3-1.62.24-.17.48-.35.71-.55.81-.7,1.36-1.69,2.13-2.43.51-.49,1.23-.75,1.85-1.12.16.74.63,1.61.39,2.18Z"/>
      <path class="cls-60" d="M89.4,182.08c-.44.55-.91,1.01-1.43,1.48-.17.15-.36.3-.55.46.03-3.26.12-6.54.23-9.83.03-1.09.07-2.19.11-3.29.34-.02.68-.03,1.01-.05.17,1.79.39,3.59.48,5.39,0,.24.02.47.03.71.06,1.66.05,3.34.12,5.13Z"/>
      <path class="cls-36" d="M149.16,96.2c2.56-.04,5.11-.13,7.66-.06.42.01.83.76,1.27,1.33.03.16,0,.15-.06.16-.12.03-.17.06-.21.09.06.08.12.16.19.25-.04.33-.08.66-.21,1.08-.62-.18-1.15-.67-1.69-.7-2.18-.09-4.37-.03-6.72-.21-.19-.76-.2-1.35-.22-1.93Z"/>
      <path class="cls-33" d="M79.29,196.65c-.03,1.58-.19,3.14-.57,4.84-.52.39-.84.64-1.15.88-.21-1.55-.42-3.11-.66-4.82.73-.41,1.49-.67,2.39-.91Z"/>
      <path class="cls-25" d="M85.56,198.37c-.11.71-.21,1.26-.45,1.95-.42.13-.7.12-.99.11-.15-1.56-.3-3.12-.49-4.83.42-.29.87-.5,1.38-.68.17-.05.35-.11.54-.16.1,1.15.05,2.3.01,3.61Z"/>
      <path class="cls-2" d="M126.58,182.18c-.25-.15-.35-.3-.45-.45.92-.17,1.85-.33,2.85-.39-.7.35-1.48.59-2.41.84Z"/>
      <path class="cls-22" d="M122.4,169.66c-.07.45-.16.93-.28,1.42-.06.26-.14.53-.22.8-.06.24-.14.48-.22.72.01-.04.01-.08.02-.12.09-.65.25-1.33.46-2.04.08-.26.16-.52.24-.78Z"/>
      <path class="cls-42" d="M129.05,148.34c-.07.31-.14.62-.31,1-.08.05-.2.04-.29.04-.03-.01-.06-.01-.08-.01-.09-.11-.1-.2-.02-.48.28-.31.49-.43.7-.55Z"/>
      <path class="cls-44" d="M171.11,164.66c.09-.17.3-.36.57-.45-.11.21-.28.32-.57.45Z"/>
      <path class="cls-52" d="M38.83,236.61c-.05-.13.03-.22.23-.3.02.09-.06.2-.23.3Z"/>
      <path class="cls-34" d="M158.05,97.88c-.11,0-.17-.08-.23-.16.05-.03.09-.06.22-.09.08,0,.05.18,0,.26Z"/>
      <path class="cls-4" d="M129.13,148.27c-.29.19-.5.31-.79.47-.35-.29-.86-.62-.87-.96-.12-5.25-.2-10.49-.22-15.74,0-.8.43-1.61.41-2.41-.01-.62-.32-1.29-.68-1.81-.15-.22-1.03-.29-1.16-.11-.38.51-.76,1.17-.77,1.78-.02,2.96.08,5.91.09,9.05-.6.61-1.38.93-1.67,1.51-1.5,2.98-3.85,4.89-6.93,6.08-1.59.61-2.88,1.59-3.79,3.22-2.18,3.88-5.79,4.13-9.71,3.4-1.8-.33-3.58-.48-4.57-2.41-.23-.45-1.06-.59-1.74-.93-.12-.06-.09-.24.01-.38.19-.23.24-.33.26-.46,1.43-2.99,3.01-5.92,4.26-8.98,1.88-4.57,3.53-9.24,5.29-14.02.74-.28,1.47-.52,2.21-.53,14.84-.07,28.17-4.61,39.94-13.6,2.66-2.03,5.02-4.45,7.63-6.78-.8,2.53-1.55,5.22-2.65,7.75-5.09,11.69-11.79,22.34-20.7,31.54-.25.25-.38.61-.58,1.06-.8.89-1.59,1.64-2.6,2.43-.27.16-.31.28-.36.4-.08.11-.16.22-.32.41Z"/>
      <path class="cls-17" d="M55.5,62.56c2.32-.15,4.63-.29,7.05-.31-.23.3-.59.44-.9.64-1.45.93-2.3,2.98-1.86,4.6.48,1.76,1.68,2.79,3.49,3.02,1.89.25,3.2-.6,4.23-2.67,3.06-.21,6-.27,8.93-.48.68-.05,1.33-.6,2.12-.96,2.32-2.21,4.51-4.38,6.82-6.62,1.04-1.24,2.23-1.67,3.72-1.49.86.1,1.74-.03,2.77-.02.68.06,1.21.09,1.73.26-.86,1.14-1.65,2.22-2.6,3.12-.97.93-2.57,1.47-3.09,2.56-1.45,3.08-4.05,4.09-7,4.77-.73.17-1.63.2-2.13.65-2.96,2.68-6.81,2.31-10.29,3.09-2.37.53-4.49,2.14-5.13,4.68-.43,0-.71,0-1.03-.16-.98-.77-1.92-1.25-2.8.17-.56,0-.96,0-1.38-.15-.59-.92-.95-.75-1.26.16-1.1,1.13-2.08,2.23-3.18,3.37-1.09.27-2.04.67-3.01.72-2.2.12-4.41.07-6.69-.03-.93-.88-1.76-1.69-2.65-2.42-1.01-.83-1.73-2.69-3.26-1.9-.68.35-.62,2.12-1.01,3.33-.76.48-1.41.87-2.07,1.26-4.62-2.81-7.8-6.86-9.94-11.94.7-1.69,1.64-2.49,3.38-2.03.63.17,1.36-.03,2.2-.06,2.63.06,5.11.2,7.57.15,1.66-.03,3.31-.31,5.15-.47,3.69.19,7.2.37,10.45.53,1.25-1.89.13-4,1.66-5.39Z"/>
      <path class="cls-38" d="M37.95,59.49c-5.86.06-11.53-.88-16.8-3.5-6.48-3.22-11.58-7.96-14.67-14.59-.94-2.01-1.34-4.28-2.08-6.7,3.21.29,5.86.45,8.49.78,3.31.42,6.61.97,9.91,1.49,3.17.5,6.34,1.02,9.6,1.69.01,1.19-.07,2.22-.31,3.26-3.05-.01-4.36.93-4.85,3.36-.37,1.84.67,3.75,2.43,4.46,1.84.74,3.57.11,4.93-1.91.57-.4,1.05-.89,1.56-.92,1.49-.08,2.99.02,4.37.14-1.26.46-2.41.82-3.56,1.19l-.02.49c1.05.27,2.21.36,3.13.86,1.04.57,2.7,1.57,2.65,2.27-.19,2.49,1.39,3.61,2.82,5.04-.28.41-.52.7-.88.99-.8-.45-1.42-1.07-2.16-1.26-.72-.19-1.77-.22-2.29.17-.91.69-1.52,1.77-2.26,2.68Z"/>
      <path class="cls-39" d="M45.59,56.8c-1.47-1.33-3.05-2.45-2.87-4.93.05-.71-1.61-1.71-2.65-2.27-.93-.5-2.08-.59-3.13-.86l.02-.49c1.15-.37,2.31-.74,3.67-1.21.28-.09.34-.08.48,0,.39.02.71-.03,1.19-.11.83-.06,1.5-.1,2.33-.11,1.19,0,2.22-.04,3.37-.04.29.04.46.06.7.18,1.84,1.83,3.56,3.61,5.42,5.23.66.57,1.66,1.03,2.52,1.06,3.29.12,6.59.05,10.06.07,4.64.02,9.09.03,13.71.05,1.19-.25,2.22-.52,3.37-.73,2.6,2.68,5.34,2.68,8.5,1.27,3.71-1.66,7.58-2.93,11.33-4.5.67-.28,1.31-1.08,1.56-1.79.49-1.4.69-2.9,1.17-4.4.55.25,1.28.54,1.29.84.08,4.03.05,8.06.05,12.34-1.28,0-2.34,0-3.5-.03-.17-.04-.24-.06-.43-.16-3.08,0-6.04.08-9.09.19-.16.05-.22.07-.46.06-2.45-.02-4.73-.09-6.99.06-.65.04-1.26.72-1.96,1.19-.31.4-.54.7-.89,1.06-2.36,2.28-4.61,4.51-7.02,6.74-1.34.11-2.52.3-3.7.33-2.16.05-4.39.39-6.34-1.2-1.02-1.03-2.02-1.94-3.01-2.84,2.45-.24,4.91-.48,7.36-.72,0-.15-.02-.31-.02-.46-.64,0-1.28,0-1.92,0-7.4-.13-14.8-.25-22.19-.4-.54-.01-1.07-.24-1.71-.51.97-.58,2-1.18,3.1-1.39,1.03-.2,2.14.07,3.2,0,.37-.03.7-.5,1.05-.77-.29-.24-.58-.69-.88-.7-2.23-.05-4.46-.02-6.69-.02Z"/>
      <path class="cls-28" d="M7.07,19.21c1.8-1.62,3.69-1.61,5.77-.62.37.18,1.31-.51,1.81-.99,2.42-2.3,4.74-4.71,7.21-6.96.48-.44,1.43-.41,2.18-.47.87-.07,1.75-.01,2.74-.11,3.78,1.19,7.44,2.48,11.16,4.03,1.2,1.31,2.34,2.36,3.47,3.59-.28,1.7-.56,3.23-.94,4.82-.78.65-1.45,1.25-2.24,1.9-.54.34-.96.62-1.36.92-1.23.94-2.27,1.81-4.15,1.09-1.93-.74-3.54.41-4.53,2.62-.11,1.1-.13,2.07-.15,3.03-4.35-1.88-8.91-3.4-12.98-5.77-2.99-1.74-5.35-4.59-8-7.08Z"/>
      <path class="cls-62" d="M63.5,77.39c.5-2.53,2.62-4.13,4.99-4.66,3.48-.78,7.34-.41,10.29-3.09.5-.45,1.4-.49,2.13-.65,2.95-.68,5.55-1.69,7-4.77.51-1.09,2.11-1.63,3.09-2.56.95-.91,1.74-1.98,2.78-3.15,1.98-.14,3.78-.12,5.69,0,.92.13,1.72.17,2.51.36-.26.85-.7,1.56-.71,2.27-.08,3.63-1.72,6.13-4.98,7.73-.69.34-1.04,1.37-1.7,2.04-1.98-.75-3.66-.44-5,.98-1.3,1.38-1.34,3.04-.6,4.85-.55.79-1.06,1.46-1.68,2.19-1.45,1.54-2.79,3.02-4.24,4.55-1.11.52-2.08,1.3-3.11,1.4-2.17.21-4.37.06-6.57.05.68-.85,1.35-1.69,2.19-2.71.21-.3.25-.44.29-.58-.19.1-.38.2-.57.3-3.7,1.41-7.4,2.81-11.32,4.12-.39-.34-.72-.6-.7-.83.17-2.08.4-4.16.75-6.26.99.41,2.02.68,2.63,1.33,1.65,1.76,2.39,1.87,4.2.15.82-.78,1.64-1.57,2.4-2.41.28-.31.37-.78.54-1.17-.16-.15-.32-.3-.48-.46-1.17.83-2.46,1.54-3.48,2.53-.99.96-2.06.74-2.56,0-1-1.48-2.32-1.53-3.79-1.53Z"/>
      <path class="cls-58" d="M55.11,101.05c-1.6-3.07-3.21-6.13-4.75-9.09,4.41-.59,8.47-.8,12.34-1.75,2.96-.73,5.69-2.39,8.75-3.57,1.83.11,3.43.16,5.21.23,2.99,0,5.97.63,8.18-1.79-.37,1.66-1.2,2.5-2.9,2.32-.57-.06-1.7.29-1.7.42.09,2.23-2.16,2.08-3.11,3.21-1.15,1.38-2.55,2.68-3.23,4.28-.68,1.58-.61,3.49-1.04,5.28-5.38.05-10.59.06-15.79.11-.65,0-1.3.23-1.95.35Z"/>
      <path class="cls-39" d="M32.25,41.91c.08-1.03.16-2.06.3-3.22,2.46.15,4.86.4,7.26.72,3.19.43,6.38.9,9.56,1.37,2.14.32,4.27.67,6.59.97,1.1,1.19,2.02,2.41,3.01,3.76.9.44,1.7.9,2.56,1.05,1.4.24,2.83.29,4.28.54.49.44.94.99,1.41,1.01,1.28.03,2.7.13,3.79-.39.6-.29-1.31-2.5-2.99-2.71-1.15-.14-1.57-.62-1.31-1.7.5-.14.87-.28,1.29-.27.72.32,1.4.49,2.27.72-.15-1.11-.22-1.66-.15-2.21.56.51.98,1.01,1.26,1.54q-.66,1.08,1.28,1.31c0,.35-.04.55,0,.72.44,2.2.11,4.9,3.4,5.31.17.02.27.61.23.96-4.36.03-8.58-.32-12.72.12-5.55.59-10-.77-13.32-5.4-.39-.55-1.22-1.06-1.87-1.09-2.45-.13-4.92-.05-7.51-.07-.41,0-.68,0-1.1,0-.44,0-.74,0-1.21,0-1.43-.26-2.7-.51-3.98-.88-.65-.67-1.29-1.22-1.97-1.84-.13-.18-.23-.26-.34-.32Z"/>
      <path class="cls-1" d="M55.15,101.16c.61-.23,1.26-.45,1.91-.46,5.2-.05,10.41-.06,15.97-.08,4.04,0,7.73-.2,11.39.08,2.86.22,4.89-.71,6.47-2.96.15-.21.32-.39.48-.59,4.58-5.66,9.16-11.33,13.83-17.08.83-1.56,2.58-2.47,2.42-4.42-.1-1.17-.23-2.35-.23-3.52,0-2.19.08-4.38.17-6.74.02-2.22,0-4.27,0-6.43-.19-.24-.41-.36-.77-.53-.57-.07-.99-.1-1.47-.26-.73-.4-1.4-.68-2.14-.99.44-.32.77-.56,1.09-.79h3.4c0-4.28.03-8.31-.05-12.34,0-.3-.74-.58-1.46-.88-2.49-.06-4.66-.11-6.72-.25.8-.14,1.48-.18,2.34-.23,1.86-.19,3.54-.39,5.7-.65-.78-.5-1.03-.67-1.11-.85,3.89,0,3.24-.27,3.3,3.1.06,3.15.08,6.3.08,9.62-.07,1.58-.11,2.99-.27,4.46-1.93.96-1.45,2.59-1.28,4.02.06.46.55,1.43,1.41.59.07.31.11.48.11.83,0,4,.03,7.82.02,11.75-.08.17-.11.24-.25.4-.16,1.13-.22,2.17-.41,3.23-.7.5-1.35.91-1.81,1.48-2.69,3.31-5.34,6.65-8.11,10.04-.38.43-.66.81-1.02,1.29-1.57,2.04-3.07,3.98-4.62,6.03-.59.65-1.12,1.19-1.74,1.79-.39.41-.69.75-1.09,1.16-1.44,2.01-3.51,1.82-5.65,1.88-6.16.02-12.13.06-18.29.08-3.63-.16-7.08-.3-10.54-.43-.34-.42-.68-.84-1.07-1.38M64.08,100.99h-3.92c0,.09.01.19.02.28h9.38c0-.09,0-.19,0-.28-1.7,0-3.4,0-5.48,0Z"/>
      <path class="cls-61" d="M117.24,119.68c-1.68,2.85-4.41,3.65-7.46,3.79-.76.04-1.52,0-2.27.01-1.2,0-1.37.64-.98,1.76-3.56-.24-7.12-.62-10.88-1.16-1.19-.29-2.2-.43-3.2-.56-.17-.01-.33-.03-.64-.2-.08-.58-.12-1.32.06-1.37,2.27-.74,2.22-2.54,2.31-4.43,3.21-.1,6.26-.25,9.29-.2,1.89.03,3.39-.34,4.65-1.93,1.32-1.66,3.53-1.42,4.84.25.85,1.09,1.75,2.14,2.68,3.31.56.31,1.08.53,1.59.74Z"/>
      <path class="cls-47" d="M82.21,120.56c-3.61-1.68-7.23-3.35-10.99-5.21-.4-.33-.66-.47-.91-.62,0,0-.17-.03-.28-.18-.32-.21-.53-.26-.73-.31-.12-.02-.25-.04-.42-.29-.24-1.17-.8-2.22-.54-3,.53-1.65.66-3.12-.13-4.6,1.45.64,2.76,1.26,4.2,1.95.59.12,1.05.18,1.67.28.44.15.73.37,1.02.38,2.21.07,4.58-.45,6.19,1.77.06.08.25.13.35.1,2.28-.78,4.44-.02,6.71.57.28,1.45.49,2.79.54,4.15-.97.24-2.01.21-2.57.71-1.48,1.32-2.74,2.87-4.1,4.32Z"/>
      <path class="cls-13" d="M55.89,40.49c-6.67-1.94-13.35-3.87-20.02-5.81-.35-.1-.69-.26-1.17-.55,1.44-1.85,1.53-3.83,1.08-6,.94-.78,1.78-1.48,2.67-2.28.02-.15,0-.22-.06-.28-.02,0,.02.02.15.06.91-.68,1.69-1.4,2.57-2.17.37-.64.64-1.22.94-1.87.56,1.65,1.09,3.22,1.65,4.9.65.83,1.2,1.6,1.89,2.24,1.06.97,2.29,1.76,3.29,2.78,1.38,1.4,2.61,2.94,3.97,4.53,1.05,1.27,2.04,2.43,3.04,3.73,0,.34,0,.53,0,.72Z"/>
      <path class="cls-39" d="M63.89,78.98c-.21,2.08-.44,4.15-.61,6.23-.02.23.31.49.54.84-4.37,1.28-8.8,1.92-13.47,1.3-5.49-.73-10.55-2.37-15.25-5.48.58-.49,1.23-.88,2.09-1.28q1.09,2.28,3.51.7c1.26.43,1.81,2.77,3.91,1.39,3.33-.01,6.5-.02,9.84-.01,1.03-.02,1.9-.07,3.21-.13-1.31-.61-2.12-.99-2.91-1.45.01-.09.04-.26.15-.32,1.14-.67,2.12-1.65,3.21-1.81,1.89-.26,3.85-.01,5.78.02Z"/>
      <path class="cls-54" d="M55.34,62.54c-1.37,1.41-.25,3.53-1.5,5.42-3.25-.16-6.76-.34-10.37-.64.45-.49,1-.86,1.56-1.22-.17-.3-.34-.59-.52-.89-1.15.25-2.28.66-3.44.73-2.96.19-5.92.23-8.88.36-.78.03-1.55.19-2.47.31.37.53.58.83.79,1.13-.68.03-1.41.23-2.04.06-1.74-.46-2.68.34-3.4,1.89-.78-1.47-1.45-3.02-2.2-4.77,2.14-.19,3.98-.39,5.82-.52,5.6-.4,11.21-.77,16.82-1.14,2.06-.14,4.12-.24,6.18-.39,1.17-.09,2.34-.24,3.67-.33Z"/>
      <path class="cls-58" d="M68.07,106.33c.92,1.5.79,2.97.26,4.62-.25.79.31,1.84.5,2.92-4.95-2.73-9.05-6.54-12.56-11.2,3.4.01,6.86.14,10.49.44.56,1.19.94,2.21,1.31,3.23Z"/>
      <path class="cls-1" d="M82.28,120.66c1.28-1.56,2.55-3.1,4.03-4.42.56-.5,1.6-.47,2.75-.7,5.24-.01,10.15.04,15.05-.07.87-.02,1.72-.71,2.69-1.16,1.4-2.29,3.64-1.34,5.49-1.67,1.24,1.49,2.47,2.98,3.73,4.75-.13.66-.28,1.05-.43,1.44-.88-1.07-1.78-2.12-2.63-3.2-1.32-1.67-3.52-1.91-4.84-.25-1.26,1.59-2.76,1.96-4.65,1.93-3.04-.05-6.08.1-9.47.16-1.85-.02-3.35.03-4.85-.07-1.31-.09-2.27.31-3.06,1.39-.62.85-1.42,1.57-2.14,2.35,0,0-.07.04-.16-.07-.22-.14-.36-.17-.49-.21-.32-.03-.64-.07-1.03-.2Z"/>
      <path class="cls-16" d="M84.11,121.17c.57-.81,1.37-1.54,1.99-2.38.79-1.07,1.74-1.48,3.06-1.39,1.49.11,3,.05,4.67.11.26,1.89.31,3.7-1.96,4.43-.18.06-.14.8-.18,1.35-2.46-.61-4.94-1.35-7.58-2.12Z"/>
      <path class="cls-3" d="M64.15,61.74c1.13.94,2.12,1.84,3.09,3-1.29,1.31-.33,2.24.14,3.19-.91,1.97-2.21,2.82-4.1,2.57-1.81-.23-3.01-1.26-3.49-3.02-.44-1.62.41-3.67,1.86-4.6.32-.2.67-.35,1.08-.63.48-.26.88-.4,1.42-.52M62.62,64.78c-1.13,1.02-1.45,2.24-.14,3.17.58.42,1.88.38,2.51,0,.51-.31.84-1.57.64-2.23-.38-1.27-1.5-1.58-3.02-.94Z"/>
      <path class="cls-1" d="M35.68,28.2c.56,2.1.46,4.08-1.13,5.91-3.79.87-5.03.5-6.45-1.92-.03-1.09,0-2.05.22-3.16.69-.12,1.18-.1,1.66.07-.2,1.6.03,2.93,1.69,3.18,1.5.23,2.25-.8,2.61-2.13.32.03.72.06.77-.06.26-.61.42-1.26.62-1.9Z"/>
      <path class="cls-5" d="M76.48,86.84c-1.6-.05-3.21-.1-4.92-.27.46-.6,1.02-1.08,1.7-1.62,2.31-.05,4.51.1,6.68-.11,1.03-.1,1.99-.88,3.25-1.37.45.3.88.82.8.92-.89,1.08-1.89,1.79-3.5,1.69-1.32-.08-2.68.48-4.02.75Z"/>
      <path class="cls-53" d="M45.54,56.91c2.28-.11,4.51-.14,6.74-.09.3,0,.59.46.88.7-.35.27-.68.74-1.05.77-1.06.08-2.17-.19-3.2,0-1.11.22-2.14.81-3.26,1.36-.59.14-1.12.15-1.8.02.21-.69.57-1.23.94-1.76.24-.3.47-.6.75-1Z"/>
      <path class="cls-36" d="M44.66,57.9c-.23.55-.6,1.09-.96,1.75-1.86.12-3.71.12-5.66-.02.65-1.05,1.26-2.13,2.17-2.82.52-.4,1.57-.36,2.29-.17.74.19,1.36.82,2.16,1.26Z"/>
      <path class="cls-1" d="M55.88,40.62c0-.33.01-.52.1-.91.43-.83.78-1.46,1.23-2,.29.57.49,1.06.66,1.69.32.93.66,1.71.91,2.57.16.62.41,1.17.62,1.86-.18.61-.34,1.08-.49,1.55-.92-1.22-1.84-2.44-2.86-3.75-.13-.35-.15-.61-.16-1.01Z"/>
      <path class="cls-16" d="M92.52,123.65c.93,0,1.93.13,2.96.4-.94,0-1.92-.13-2.96-.4Z"/>
      <path class="cls-58" d="M70.35,114.84c.22.04.47.18.75.45-.22-.03-.47-.19-.75-.45Z"/>
      <path class="cls-58" d="M69.38,114.3c.13-.01.33.04.57.22-.14.04-.32-.06-.57-.22Z"/>
      <path class="cls-16" d="M83.35,120.96c.09-.07.22-.04.41.09-.08.06-.23.04-.41-.09Z"/>
      <path class="cls-9" d="M96.92,148.62c.08.09.03.2-.13.34-.04-.07,0-.19.13-.34Z"/>
      <path class="cls-24" d="M188.53,23.21c.55-.25,1.08-.68,1.64-.71,3.88-.18,7.78-.51,11.65-.34,3.23.14,6.44.89,9.86,1.57,3.15,1.59,6.1,2.99,9.06,4.37.27.12.63.06.95.08,0,0-.02.02-.11.12,2.09,2.03,4.27,3.97,6.28,5.93-1.88.34-3.58.75-5.31.96-4.24.52-8.49.94-12.85,1.36-3.95-3.84-9.46-3.19-12.31,1.38-.22.35-.54.64-.97.96-1.06-.26-1.96-.7-2.87-.74-4.46-.16-8.85-1.31-13.39-.51-1.77.31-3.71-.61-5.58-.62-2.37-.02-4.36-.49-5.5-2.86,5.56-5.46,12.1-8.94,19.47-10.94Z"/>
      <path class="cls-41" d="M215.22,62.98c-1.94,2.57-3.68,5.27-5.34,8.24-1.25-.35-2.31-.63-3.19-1.18-1.85-1.16-3.7-1.66-5.92-1.2-1.52.31-3.27.44-4.71-.01-5.02-1.59-10.41-.89-15.4-2.78-2.25-.85-4.81-.9-7.24-1.24-3.57-.51-7.14-1.1-10.73-1.38-1.99-.16-4.36-1.1-5.93,1.32-2.58-1.67-5.04-3.29-7.57-5.01-.54-.57-1-1.03-1.47-1.49,0,0,0-.11.15-.2,1.4-1.51,2.64-2.93,4.04-4.34.51.29.87.57,1.22.86.52.43.98,1.08,1.57,1.27,1.73.54,3.5.97,5.29,1.32,4.22.82,8.45,1.6,12.69,2.31,1.76.29,3.63.07,5.32.54,3.79,1.05,7.56,2.06,11.53,1.73,1.37-.12,2.71-.7,4.07-.7,3.53,0,7.07.15,10.6.38,2.16.15,4.19.24,6.05-1.23.48-.38,1.74-.37,2.26,0,1.05.74,1.84,1.85,2.73,2.81Z"/>
      <path class="cls-32" d="M147.57,58.26c.6.44,1.07.9,1.49,1.52-.7.91-1.4,1.63-2.02,2.42-2.53,3.24-5.45,6.21-6.62,10.34-.16.55-.89,1.25-1.44,1.33-1.72.26-2.53,1.18-2.83,2.75-4.1-3.84-8.09-7.61-12.03-11.5,1.38-2.67,3.12-4.85,5.52-6.48.3-.21.67-.51.75-.83.74-2.91,3.18-4.4,5.13-6.31,2.32,1.21,4.66,2.37,6.94,3.65,1.7.96,3.32,2.08,5.11,3.1Z"/>
      <path class="cls-45" d="M57.89,39.25c-.19-.49-.38-.97-.72-1.63-.2-.22-.25-.26-.35-.41-3.89-4.08-7.73-8.06-11.62-12.17-.3-.83-.6-1.51-.79-2.23-.51-1.91-.98-3.83-1.49-5.86-.37-.5-.71-.89-1.06-1.28,2.86.91,5.74,1.78,8.58,2.76,1.74.6,3.41,1.37,5.28,2.27.56,1.56.98,2.91,1.34,4.27.28,1.07.48,2.15.77,3.35,1.76,1.94,3.5,3.73,5.17,5.6.46.52.7,1.24.97,2,.13,1.42.33,2.7.39,4.05-1.06.62-2.74.13-2.81,1.99-.06.03-.2.04-.36.01-.6-.04-1.03-.05-1.38-.16.99-.39,1.45-.96.55-1.63-.68-.5-1.62-.63-2.45-.92Z"/>
      <path class="cls-40" d="M135.4,51.45c-1.83,1.96-4.27,3.46-5.01,6.37-.08.32-.44.63-.75.83-2.4,1.62-4.14,3.81-5.64,6.42-1.82-1.58-3.55-3.16-5.1-4.9-.56-.63-.96-1.63-.98-2.47-.07-4.73,0-9.46.03-14.19,1.77.61,3.6,1.06,5.28,1.86,4.05,1.92,8.03,4.01,12.16,6.09Z"/>
      <path class="cls-26" d="M71.87,26.36c1.55.58,3.1,1.17,4.87,1.91,1.45,1.35,2.68,2.54,3.92,3.91,0,2.6-.02,5.03-.18,7.45-2.63-1.13-5.11-2.26-7.59-3.38-.54-.24-1.09-.45-1.74-.7-.42-.4-.74-.78-1.1-1.26-1.3-1.29-2.7-1.37-4.32-.76-.17-.02-.23-.02-.37-.13-2.17-2.18-4.28-4.26-6.38-6.52-.02-1.87-.04-3.55-.06-5.24,2.12.69,4.24,1.39,6.51,2.31.48.3.82.36,1.16.42,0,0-.03,0,.03.1.28.16.5.22.72.29,0,0-.02.01,0,.14,1.11,1.59,2.67,1.42,4.21,1.36,0,0-.03.04,0,.09.13.04.23.02.33.01Z"/>
      <path class="cls-13" d="M82.23,30.16c5.92,2.14,11.85,4.27,17.77,6.42,1.6.58,3.19,1.23,4.83,2.03-1.15.21-2.37.23-3.58.27-1.13.04-2.1.29-2.12,1.74,1.79.15,3.46.3,4.97.47-1.72.05-3.26.07-4.98.07-5.38-.01-10.59,0-15.95-.04-.33-.72-.62-1.4-.65-2.08-.14-2.96-.2-5.92-.29-8.88M94.84,40.41c-.17.05-.33.09-.5.14.04.08.08.17.12.25.19-.12.39-.24.38-.39Z"/>
      <path class="cls-1" d="M117.84,43.43c.09,4.8.02,9.53.09,14.26.01.84.42,1.84.98,2.47,1.55,1.74,3.27,3.32,5.04,5.03,4.1,3.83,8.09,7.6,12.29,11.55.79.2,1.38.23,1.98.4.64.7,1.27,1.27,1.75,1.82-1.03.47-2.28.74-2.71,1.48-.73,1.26.33,2.21,1.32,3.1-.41.61-.79,1.09-1.3,1.53-.53-.32-.93-.62-1.34-1.03-.2-.41-.4-.7-.66-1.12-.14-.8-.44-1.54-.26-2.12.58-1.83-.26-2.95-1.71-4-2.6-2.43-5.14-4.75-7.73-7.18-2.16-2.12-4.27-4.12-6.44-6.23-1.6-1.77-3.92-2.99-3.41-6.02.01-5.02,0-9.87-.02-14.71.67.23,1.34.47,2.13.77Z"/>
      <path class="cls-31" d="M115.71,42.67c.02,4.83.03,9.68-.11,14.68-.54-.15-.9-.49-1.31-.76-1.49-.96-3-1.9-4.5-2.85-.04-3.15-.06-6.3-.12-9.45-.06-3.38.59-3.11-3.46-3.13-.86-.04-1.39-.08-1.92-.12-1.68-.14-3.36-.29-5.14-.44.02-1.44.99-1.7,2.12-1.74,1.21-.04,2.42-.06,3.7-.21,3.43,1.12,6.78,2.36,10.31,3.72.24.23.33.29.46.3,0,0-.02,0-.02-.02Z"/>
      <path class="cls-6" d="M82.1,30.12c.23,2.99.29,5.95.43,8.91.03.69.33,1.36.7,2.18.42.7.64,1.26.8,1.87-.09.08-.15.14-.15.15.04.08.11.15.15.4,0,2.69,0,5.19-.06,7.76-.14.16-.16.26-.17.51-.08.31-.12.48-.15.66-1.03.27-2.06.54-3.34.68-2.44-.33-4.69-.27-6.8-.77-4.21-1.01-8.46.6-12.68-.51-1.32-.35-2.97.58-4.81,1.01,1.27,0,2.22-.03,3.16,0,2.45.09,4.89.21,7.34.31-3.29,0-6.59.07-9.88-.05-.86-.03-1.86-.48-2.52-1.06-1.86-1.62-3.58-3.4-5.45-5.37-2.01-.53-3.93-.77-5.84-1.11-.64-.11-1.23-.49-1.84-.74,2.46,0,4.92-.08,7.38.05.65.03,1.48.55,1.87,1.09,3.32,4.63,7.77,5.98,13.32,5.4,4.14-.44,8.36-.09,12.9-.09,1.9-.03,3.45-.07,5.06-.1.16-.05.21-.13.26-.3.04-.07.07-.24.15-.32.09-.31.12-.53.16-.92-.06-2.18.34-4.39-.39-6.11-.57-1.35-.97-2.6-1.07-4.01.01-2.43.02-4.85.15-7.34.11,2.12.11,4.3.11,6.48.16,0,.31,0,.47,0l.14-2.58c.07,0,.14,0,.21,0,.07.88.14,1.77.2,2.65.27-1.33.36-2.66.24-3.96-.15-1.65-.48-3.28-.73-4.92.18.04.36.08.68.15Z"/>
      <path class="cls-35" d="M245.16,43.45c1.21.58,2.29,1.13,3.44,1.78-9.19.12-18.46.13-27.82.04,3.76-1.83,7.61-3.55,11.61-5.24.87.13,1.58.24,2.29.35.16,0,.31,0,.61.17.65.31,1.16.46,1.68.6.27,0,.55,0,.97.16,2.19.82,4.23,1.47,6.27,2.13.27,0,.55,0,.95.03Z"/>
      <path class="cls-5" d="M81.34,29.87c.33,1.75.65,3.38.8,5.03.12,1.31.02,2.63-.24,3.96-.07-.88-.14-1.77-.2-2.65-.07,0-.14,0-.21,0l-.14,2.58c-.16,0-.31,0-.47,0,0-2.18,0-4.37-.11-6.66-1.35-1.3-2.59-2.5-3.91-3.78,1.41.41,2.91.92,4.48,1.54Z"/>
      <path class="cls-1" d="M58.84,21.52c.09,1.8.11,3.49,0,5.4-.44.57-.76.92-1.08,1.28-.24-1.08-.44-2.16-.72-3.23-.36-1.36-.78-2.71-1.23-4.19.95.12,1.95.38,3.02.75Z"/>
      <path class="cls-5" d="M41.72,15.63c.48.44.83.83,1.18,1.45-.36,1.21-.88,1.1-1.47.44-1.14-1.05-2.28-2.1-3.41-3.29,1.19.36,2.38.86,3.7,1.4Z"/>
      <path class="cls-51" d="M244.14,43.29c-1.97-.52-4.02-1.17-6.07-1.96,1.99.52,4,1.17,6.07,1.96Z"/>
      <path class="cls-25" d="M71.47,26.13c-1.47.19-3.03.36-4.13-1.24,1.35.28,2.71.7,4.13,1.24Z"/>
      <path class="cls-51" d="M236.94,40.99c-.48,0-1-.14-1.53-.42.49,0,.99.13,1.53.42Z"/>
      <path class="cls-25" d="M66.53,24.25c-.28.06-.62,0-1.03-.17.28-.06.63,0,1.03.17Z"/>
      <path class="cls-25" d="M67.29,24.65c-.18.05-.4-.02-.67-.19.17-.04.4.02.67.19Z"/>
      <path class="cls-1" d="M115.71,42.6c-.1.08-.2.02-.3-.16.07-.03.18.02.3.16Z"/>
      <path class="cls-25" d="M71.79,26.33s-.12.05-.24,0c-.01-.07.16-.03.24,0Z"/>
      <path class="cls-18" d="M151.9,53.7c1.7-2.24,3.56-4.47,5.67-6.77.65.09,1.25.13,1.42.43,1.29,2.14,3.4,2.72,5.62,3.03,2.24.31,4.51.38,6.75.72,4.42.66,8.8,1.61,13.23,2.09,2.2.24,4.55-.06,6.73-.56,2.74-.63,5.37-1.71,8.06-2.57.27-.09.63.1.91.04.85-.19,1.69-.44,2.67-.7.47.02.82.08,1.17.29.84,1.56,3.49,2.11,5.5,1.51,2.21-.66,4.49-1.12,6.74-1.63.35-.08.9-.12,1.1.07,1.58,1.54,3.55.92,5.38,1.05,1.37.1,2.46.59,2.68,2.14-3.37,3.33-6.73,6.67-10.21,10.08-1-.88-1.79-1.99-2.84-2.74-.52-.37-1.78-.38-2.26,0-1.86,1.47-3.89,1.38-6.05,1.23-3.53-.24-7.06-.38-10.6-.38-1.36,0-2.7.58-4.07.7-3.97.34-7.74-.67-11.53-1.73-1.69-.47-3.56-.25-5.32-.54-4.24-.7-8.47-1.49-12.69-2.31-1.78-.34-3.56-.77-5.29-1.32-.6-.19-1.05-.84-1.57-1.27-.35-.29-.71-.56-1.22-.86Z"/>
      <path class="cls-12" d="M156.87,64.79c1.45-2.47,3.82-1.53,5.81-1.37,3.59.28,7.16.87,10.73,1.38,2.43.35,4.99.39,7.24,1.24,4.99,1.89,10.38,1.19,15.4,2.78,1.44.46,3.19.32,4.71.01,2.23-.46,4.07.05,5.92,1.2.89.55,1.95.83,3.08,1.25-.43,1.59-1.02,3.18-1.69,4.86-.25-.27-.42-.63-.63-1.11-1.74.26-3.53.86-5.28.74-3.91-.27-7.8-.9-11.7-1.37-1.25-.15-2.51-.21-3.74-.46-3.13-.62-6.24-1.34-9.37-1.98-3.05-.63-6.1-1.3-9.17-1.77-.83-.13-1.77.42-2.92.63-1.58-.9-2.89-1.76-4.26-2.74-1.42-1.17-2.78-2.23-4.14-3.29Z"/>
      <path class="cls-15" d="M227.84,34.23c1.55,1.83,2.93,3.69,4.35,5.66-3.8,1.83-7.65,3.55-11.59,5.36-.26.16-.43.22-.74.12-.64-.77-1.04-1.58-1.69-1.94-2.29-1.28-4.55-.55-6.76.25.78-2.77-.07-5.01-1.63-7.08,4.25-.46,8.5-.89,12.74-1.41,1.72-.21,3.42-.62,5.31-.96Z"/>
      <path class="cls-19" d="M211.43,43.83c2.2-.96,4.46-1.69,6.75-.41.65.36,1.04,1.18,1.55,1.94-.47.32-.92.47-1.67.72,3.4,1.66,6.53,3.19,9.98,4.87-.86.67-1.55,1.21-2.38,1.81-.36-1.49-1.44-1.98-2.81-2.08-1.83-.13-3.8.5-5.38-1.05-.2-.2-.75-.15-1.1-.07-2.25.51-4.53.97-6.74,1.63-2.01.6-4.66.05-5.36-1.56,3.55-.72,6.09-2.35,7.16-5.81Z"/>
      <path class="cls-50" d="M112.29,112.49c-1.85.48-4.09-.47-5.64,1.79-.85-.19-1.41-.58-2.02-.64-1.93-.19-2.25-1.37-2.31-3.03-.04-1.28-.1-2.86-.82-3.77-2.02-2.57-1.95-5.62-2.45-8.58,1.22-.68,2.02-1.49,2.02-2.8.83.83,1.56,1.58,2.15,2.41.02.46.17.84.31,1.37.11,1.44.23,2.74.22,4.05-.23.37-.32.72-.42,1.07.5-.01,1-.03,1.64,0,.74.28,1.35.69,1.97.71,1.93.07,3.47-.72,4.29-2.54.75-1.65.52-3.22-.69-4.59-1.39-1.57-3.1-1.82-5.16-1.11-.46-.03-.76-.04-1.17-.13-.56-.8-1.02-1.53-1.51-2.33-.08-.14-.15-.2-.3-.35-.57-.39-1.07-.65-1.58-1.06-.38-2.18.22-2.62,2.62-2.09,2.28.5,6.2-1.31,7.15-3.41.7-1.54,1.25-3.16,1.97-4.66.96.91,1.81,1.74,2.71,2.7,1.3,1.44,2.55,2.77,3.86,4.2,1.32,1.44,2.63,2.71,3.81,4.11.36.43.58,1.23.47,1.78-.57,3.08.33,4.72,3.33,5.76-1.01,2.2-2.66,3.45-5.1,3.91-.92.17-1.69,1.18-2.63,2.01-1.1.99-2.09,1.78-3.08,2.57.09.17.18.34.27.51.85-.27,1.69-.61,2.56-.79.73-.15,1.49-.12,2.24-.17-1.76,2.24-4.02,1.63-6.21,1.01-2.54-.73-2.52-.79-2.52,2.1Z"/>
      <path class="cls-1" d="M126.89,101.33c-3.14-1.02-4.04-2.66-3.47-5.74.1-.56-.11-1.35-.47-1.78-1.17-1.4-2.49-2.67-3.68-4.16.61-.38,1.15-.61,1.81-.77,1.23,1.17,2.31,2.33,3.49,3.37.41.36,1.13.69,1.61.58,2.26-.51,3.76.45,4.98,2.23.29.42.78.94,1.21.98,1.56.13,3.13.08,4.85.15,1.44.05,2.73.05,4.02.18,0,.66-.02,1.19-.03,1.72-2.56,0-5.12-.07-7.68.03-.77.03-1.53.52-2.54.9-.86-.06-1.46-.2-1.98-.48.84-1.35.75-2.57-.54-3.18-.67-.31-1.9-.16-2.5.29-.98.73-.98,2.01-.02,2.8.56.46,1.54.42,2.34.76.01.72.02,1.28.03,1.84-.43.09-.85.18-1.42.29Z"/>
      <path class="cls-53" d="M121.2,109.39c-.93.04-1.69.01-2.42.16-.87.18-1.71.52-2.56.79-.09-.17-.18-.34-.27-.51.99-.79,1.98-1.58,3.07-2.41,2.2.11,4.34.57,6.39.3,1.22-.16,2.28-1.49,3.53-2.17.12.6.12,1.07.12,1.55-.99,2.07-2.7,2.57-4.83,2.31-.94-.11-1.9-.02-3.03-.02Z"/>
      <path class="cls-53" d="M115.65,118.94c.1-.49.26-.88.43-1.43.88-.03,1.76-.02,2.58.24.66.21,1.73.69,1.74,1.06.02,1.28-1,1.15-1.93.95-.31-.07-.62-.08-1.08-.1-.66-.2-1.18-.41-1.74-.72Z"/>
      <path class="cls-33" d="M148.99,96.18c.18.61.2,1.19.21,1.92-1.28.14-2.55.13-3.99-.05-.17-.71-.17-1.24-.17-1.77,1.26-.04,2.52-.08,3.94-.09Z"/>
      <path class="cls-53" d="M144.9,96.22c.15.58.15,1.11.15,1.77-1.17.16-2.34.19-3.67.16-.16-.59-.15-1.12.02-1.82.82-.2,1.47-.23,2.13-.25.41.03.82.06,1.37.14Z"/>
      <path class="cls-40" d="M135.51,104.82c1.32,0,2.65-.05,3.96.02.33.02.64.42.95.64-.33.28-.63.77-.98.8-1.19.1-2.39.04-3.75-.11-.17-.55-.18-.95-.18-1.34Z"/>
      <path class="cls-25" d="M129.2,107.06c-.14-.43-.14-.91-.13-1.57,1.03-.34,2.05-.5,3.24-.5.16.54.16.93.16,1.31-1.05.24-2.09.48-3.27.76Z"/>
      <path class="cls-36" d="M132.64,106.31c-.17-.4-.17-.78-.17-1.31.9-.16,1.8-.17,2.87-.18.17.4.18.79.17,1.33-.91.16-1.81.17-2.87.16Z"/>
      <path class="cls-53" d="M128.45,101.05c-.15-.56-.16-1.12-.11-1.92.23-.32.41-.39.59-.46.6.15,1.2.29,1.97.45-.66.65-1.48,1.29-2.44,1.93Z"/>
      <path class="cls-5" d="M56.23,214.49c-.38.24-.75.49-1.36.78-.59-.45-.94-.96-1.3-1.46-.1-.88-.24-1.75-.29-2.63-.11-2.01,1.01-3.4,2.7-3.44,1.64-.03,2.76,1.18,2.87,3.11.01.25,0,.51.02.92-.36.79-.74,1.41-1.28,2.18-.56.28-.96.41-1.36.54M57.2,210.39c-.58-.19-1.19-.57-1.73-.5-.29.04-.71.95-.61,1.35.11.41,1.04,1.02,1.16.93.52-.38.88-.99,1.18-1.78Z"/>
      <path class="cls-1" d="M53.48,213.92c.44.4.79.9,1.29,1.43-.92,3.97-2.56,7.55-6.47,9.68-.15-.62-.11-1.17-.07-1.72,2.83-2.48,4.52-5.59,5.25-9.39Z"/>
      <path class="cls-55" d="M46.71,225.95c-.23.18-.45.36-.87.65-1,.84-1.78,1.59-2.62,2.29-.53.44-1.12.79-1.69,1.18-.07-.07-.14-.15-.3-.34-.08-.11-.17-.14-.17-.14,0-2.59.76-3.54,4.03-4.74.71.38,1.16.74,1.6,1.11Z"/>
      <path class="cls-23" d="M41.58,230.15c.53-.48,1.12-.83,1.65-1.26.83-.7,1.62-1.45,2.57-2.19-1.04,1.5-2.22,3.01-3.52,4.57-.3-.31-.48-.67-.7-1.12Z"/>
      <path class="cls-30" d="M46.83,225.93c-.57-.35-1.01-.71-1.59-1.1.82-.52,1.77-1.01,2.85-1.51.1.54.06,1.09.08,1.73-.05.14-.16.21-.3.38-.34.22-.63.36-1.05.51Z"/>
      <path class="cls-23" d="M41.08,229.6s.08.02.05.03-.05-.02-.05-.03Z"/>
      <path class="cls-25" d="M56.24,214.68c.39-.32.79-.45,1.33-.6.16,3.97.19,7.95.07,12.12-.55.17-.95.17-1.35.17-.01-3.83-.03-7.67-.05-11.68Z"/>
      <path class="cls-54" d="M56.22,226.47c.47-.11.87-.11,1.42-.1,1.24,1.68,1.1,2.41-.92,4.6-.71-1.03-1.39-2-2.1-3.04.62-.55,1.08-.95,1.6-1.46Z"/>
      <path class="cls-42" d="M129.53,147.83c-.03-.08.02-.2.17-.31.07.12,0,.21-.17.31Z"/>
      <path class="cls-56" d="M161.07,68.19c1.31.87,2.63,1.73,4.06,2.65,2.88,2.26,5.64,4.46,8.47,6.78-1.1,2.88-3.51,3.23-6.06,3.23-1.4,0-2.8-.15-4.19-.24-.12,0-.26-.14-.35-.11-2.41.75-4.81,1.51-7.24,2.45-.03.19-.02.29-.2.26-1.6.04-3.02.1-4.59.11-2.43-.13-4.7-.2-7.02-.43-.12-1.17-.18-2.17-.06-3.19,2.87.13,5.18-.21,7.01-2.73,1.59-2.19,3.83-3.92,5.85-5.78.43-.39,1.14-.6,1.75-.65,1.52-.12,2.22-1.02,2.58-2.35Z"/>
      <path class="cls-56" d="M143.53,95.92c-.66.18-1.32.21-2.13.27-1.45.04-2.74.05-4.18-.14.07-.94.07-1.95.58-2.38,2.9-2.47,3.19-6.41,5.54-9.15,1.3.24,2.47.39,3.63.54-.44,1.12-.43,2.02.55,3.03,2.04,2.13,1.84,2.73-.78,4.07-1.52.78-3.46,1.22-3.21,3.75Z"/>
      <path class="cls-25" d="M155.71,83.08c2.32-.05,4.64-.05,7.11-.05.05.84.09,1.43.13,2.21-2.39,0-4.62,0-7.02-.24-.18-.75-.2-1.26-.21-1.77,0,0-.01-.1,0-.15Z"/>
      <path class="cls-1" d="M147.14,85.03c-1.34-.13-2.5-.28-3.86-.59-.29-.22-.39-.29-.49-.5.4-.39.8-.65,1.2-.91,2.27.07,4.55.15,6.99.4.17.64.17,1.09.18,1.54-1.28,0-2.56.02-4.02.05Z"/>
      <path class="cls-53" d="M151.33,85.02c-.18-.49-.18-.94-.2-1.52,1.41-.19,2.83-.25,4.42-.29.19.53.21,1.04.26,1.71-1.41.15-2.86.14-4.48.11Z"/>
      <path class="cls-1" d="M77.55,202.55c.34-.42.65-.67,1.09-.93.14,1.51.16,3.03.17,4.55,0,1.05-.22,2.09.95,2.86.3.2.22,1.79-.15,2.02-.65.41-1.76.56-2.47.28-.49-.19-1.03-1.77-.89-1.88,2.22-1.73.96-4.1,1.26-6.16.03-.19.01-.38.04-.75Z"/>
      <path class="cls-31" d="M84.06,200.54c.35-.1.63-.09,1.06-.08,1.76,1.5,1.74,1.79-.16,3.99-2.27-1.92-2.33-2.14-.9-3.91Z"/>
      <path class="cls-1" d="M64.03,78.96c-2.08-.01-4.03-.26-5.92,0-1.09.15-2.07,1.14-3.37,1.79-.48.04-.69.03-.9.02.98-1.1,1.95-2.2,3.2-3.32.56-.03.84-.04,1.13-.05.4.01.81.02,1.53.03,1.1-.02,1.88-.03,2.66-.04.29.01.57.02,1,.02,1.6-.02,2.93.04,3.93,1.51.51.75,1.57.97,2.56,0,1.02-.99,2.31-1.7,3.48-2.53.16.15.32.3.48.46-.17.4-.26.87-.54,1.17-.76.84-1.58,1.63-2.4,2.41-1.81,1.72-2.55,1.61-4.2-.15-.61-.65-1.64-.91-2.63-1.33Z"/>
      <path class="cls-1" d="M30.67,67.73c-.37-.3-.58-.6-.95-1.13.92-.12,1.69-.27,2.47-.31,2.96-.13,5.93-.16,8.88-.36,1.16-.08,2.29-.48,3.44-.73.17.3.34.59.52.89-.55.37-1.1.73-1.73,1.21-1.73.28-3.39.56-5.05.59-2.47.04-4.94-.09-7.57-.15Z"/>
      <path class="cls-54" d="M44.45,82.68c-1.93,1.38-2.48-.96-3.74-1.39q-2.42,1.57-3.4-.8c.17-1.21.12-2.97.79-3.32,1.53-.79,2.25,1.06,3.26,1.9.89.74,1.72,1.54,2.66,2.54.2.51.32.79.44,1.07Z"/>
      <path class="cls-1" d="M67.51,67.85c-.6-.86-1.56-1.79-.24-2.97,1.97,1.33,4.2,1,6.36.94,1.18-.03,2.35-.22,3.82-.31.52.33.75.63.97.93-.66.32-1.31.87-1.99.92-2.93.21-5.86.27-8.93.48Z"/>
      <path class="cls-30" d="M94.37,56.47c.06-.02.12-.04.45-.06,1.03.01,1.81.03,2.61.19.91.41,1.8.68,2.68.95.75.23,1.49.47,2.08.74-.8,0-1.44-.01-2.21-.13-2.84-.03-5.55.03-8.26.09-.87.03-1.75.15-2.61.05-1.5-.18-2.68.25-3.83,1.43-.42-.34-.61-.69-.81-1.03.24-.3.47-.61.92-1.02,2.71-1.07,5.23-1.3,7.82-.44.27.09.77-.5,1.16-.77Z"/>
      <path class="cls-5" d="M84.35,58.75c.31.29.51.64.81,1.04-2.09,2.23-4.28,4.41-6.6,6.62-.35-.26-.58-.56-.93-.89,2.12-2.25,4.37-4.48,6.73-6.77Z"/>
      <path class="cls-33" d="M44.62,82.68c-.28-.28-.4-.57-.53-.96,2.2-.13,4.41-.08,6.61-.2.97-.05,1.92-.45,3.01-.72.34-.02.55-.01.92.01.16.02.13.19,0,.35-.2.6-.28,1.04-.35,1.48-3.17.01-6.33.02-9.67.03Z"/>
      <path class="cls-3" d="M91.87,58.27c2.56-.09,5.27-.16,7.98-.09-.16.16-.33.19-.5.22-1.8-.03-3.6-.05-5.57-.04-.7,0-1.23-.03-1.91-.09Z"/>
      <path class="cls-62" d="M62.33,77.24c-.75.16-1.53.17-2.48.17.56-1.41,1.5-.94,2.48-.17Z"/>
      <path class="cls-62" d="M58.15,77.27c-.27.14-.56.15-.99.15.04-.89.4-1.07.99-.15Z"/>
      <path class="cls-1" d="M32.09,41.92c.27.06.37.14.36.31-.88.72-1.66,1.37-2.52,2.13-.19.96-.6,1.93-.33,2.62.21.53,1.55,1.16,1.93.95.8-.45,1.29-1.43,2.01-2.11.39.77.69,1.45.98,2.14-1.29,1.89-3.01,2.53-4.85,1.79-1.75-.71-2.79-2.61-2.43-4.46.48-2.43,1.8-3.38,4.85-3.36Z"/>
      <path class="cls-30" d="M34.6,47.83c-.37-.57-.67-1.25-1.1-2.14-.4-.61-.67-1.01-.77-1.44.73-.03,1.29-.04,1.85-.05,1.27.25,2.53.49,3.99.88.57.06.95-.03,1.33-.11.27-.01.55-.02.96-.02.75.27,1.34.64,1.98.75,1.91.34,3.83.58,5.77,1.01-.14.13-.31.11-.72-.02-1.3-.04-2.36.03-3.42.1-.67.04-1.33.07-2.3.11-.57.02-.85.04-1.12.06-.07-.01-.13-.02-.3-.02-1.59-.01-3.09-.11-4.58-.03-.51.03-.99.52-1.56.92Z"/>
      <path class="cls-23" d="M83.78,52.63c-.08-.24-.05-.41.09-.78.16-.29.19-.4.18-.51,0-2.51-.01-5.02.18-7.71,2.65-.18,5.11-.15,7.57-.2,1.74-.04,3.48-.19,5.38-.32.83-.06,1.5-.08,2.17-.11,2.17.05,4.34.1,6.68.19-.15,1.51-.35,3.01-.84,4.41-.25.71-.89,1.51-1.56,1.79-3.75,1.57-7.63,2.84-11.33,4.5-3.16,1.41-5.9,1.41-8.5-1.27Z"/>
      <path class="cls-30" d="M66.7,53.31c-2.63-.13-5.07-.24-7.52-.33-.94-.03-1.89,0-3.16,0,1.84-.43,3.5-1.35,4.81-1.01,4.23,1.11,8.48-.5,12.68.51,2.11.51,4.36.45,6.64.75-4.36.11-8.82.11-13.46.08Z"/>
      <path class="cls-3" d="M102.35,58.26c-.75-.24-1.49-.48-2.24-.71-.88-.27-1.77-.54-2.5-.97,2.19-.21,4.23-.25,6.27-.29.07.02.14.03.3.08-.23.27-.55.5-.99.82.74.31,1.41.59,2.01,1.02-.24.18-.41.21-.74.2-.81-.08-1.46-.11-2.11-.15Z"/>
      <path class="cls-3" d="M94.2,56.44c-.21.3-.71.89-.98.8-2.6-.86-5.11-.63-7.76.35.49-.37,1.1-1.04,1.75-1.08,2.26-.15,4.54-.07,6.99-.06Z"/>
      <path class="cls-36" d="M103.75,56.19c-1.91.13-3.95.17-6.17.23-.95.01-1.73,0-2.67-.04,2.79-.11,5.75-.19,8.84-.19Z"/>
      <path class="cls-6" d="M44.63,46.82c.89-.1,1.95-.17,3.13-.15-.91.12-1.93.15-3.13.15Z"/>
      <path class="cls-38" d="M41.11,47.04c.2-.1.48-.12.89-.11-.18.08-.5.14-.89.11Z"/>
      <path class="cls-3" d="M35.78,28.13c-.3.71-.47,1.36-.73,1.97-.05.12-.44.09-.81-.07-1.59-2.57-2.31-2.72-4.27-1.08-.49-.02-.98-.03-1.58-.04.79-2.07,2.4-3.23,4.33-2.48,1.88.72,2.92-.15,4.15-1.09.4-.31.83-.58,1.36-.77.14.42.16.73.17,1.04,0,0-.04-.02-.1,0-.01.13.04.24.09.35-.84.71-1.68,1.41-2.62,2.19Z"/>
      <path class="cls-1" d="M41.42,17.69c.6.49,1.12.6,1.5-.5.5,1.79.97,3.71,1.48,5.62.19.71.49,1.4.68,2.25-.51.54-.96.92-1.41,1.3-.53-1.56-1.06-3.13-1.61-4.78-.3.65-.57,1.23-.94,1.75-.25-.34-.38-.61-.52-.89.27-1.53.55-3.06.83-4.76Z"/>
      <path class="cls-30" d="M40.47,22.5c.25.22.39.5.53.9-.77.84-1.55,1.55-2.46,2.23-.15-.35-.17-.66-.18-1.12.67-.75,1.34-1.35,2.12-2Z"/>
      <path class="cls-7" d="M104.62,58.44c.17-.03.34-.06.65-.12.55,0,.97.04,1.55.2.36.27.54.41.73.55.02,2.05.04,4.1-.1,6.35-.67,1.19-1.44,2.11-1.64,3.15-.33,1.69-.29,3.44-.39,5.17-.12,2.06-1.56,3.06-3.26,3.41-.82.17-1.89-.57-2.76-1.06-.56-.31-.95-.91-1.41-1.39-.44.5-.89,1.01-1.33,1.34.37-2.21-.25-3.87-1.93-5.12.51-.71.86-1.74,1.55-2.08,3.27-1.6,4.9-4.1,4.98-7.73.02-.71.45-1.42.87-2.28.94-.24,1.71-.32,2.48-.41Z"/>
      <path class="cls-55" d="M94.58,70.9c1.82,1.28,2.44,2.94,1.99,5.25-.8,1.37-1.42,2.58-2.96,2.48-.16-.51-.3-.94-.57-1.24-.22-.24-.6-.34-.77-.5,1.68-.24,2.64-1.15,2.16-2.66-.21-.65-1.85-1.55-2.12-1.35-.77.57-1.18,1.64-1.75,2.65-.53.45-1.03.76-1.54,1.06-.78-1.69-.74-3.34.56-4.73,1.33-1.42,3.01-1.73,5-.98Z"/>
      <path class="cls-55" d="M76.65,86.87c1.17-.3,2.52-.86,3.84-.78,1.62.1,2.61-.61,3.5-1.69.08-.1-.35-.62-.68-.97,1.2-1.5,2.54-2.98,4.11-4.47.69.33,1.14.68,1.49,1.1-1.18,1.42-2.26,2.77-3.43,4.16-.29.27-.47.49-.66.72-2.2,2.56-5.18,1.92-8.17,1.93Z"/>
      <path class="cls-30" d="M89.02,79.98c-.45-.35-.9-.69-1.49-1.09.38-.72.9-1.39,1.45-2.17.55-.43,1.05-.74,1.66-1.1.57.39,1.03.83,1.49,1.27.31.16.69.26.91.5.27.3.41.73.44,1.29-1.67.27-3.37-.37-4.46,1.31Z"/>
      <path class="cls-17" d="M104.46,58.4c-.61.13-1.38.21-2.31.3-.96-.04-1.77-.08-2.68-.21.05-.12.22-.15.51-.22.77-.01,1.41,0,2.21,0,.81,0,1.46.05,2.27.12Z"/>
      <path class="cls-14" d="M75.36,81.99c.12-.17.31-.27.5-.37-.04.14-.08.27-.2.48-.13.03-.18,0-.3-.12Z"/>
      <path class="cls-47" d="M84.83,85.08c.18-.37.37-.59.68-.72,1.48,1.23,2.51.38,3.61-.4,1.18-.84,2.04-2.35,3.87-1.93,2.25.52,4.5.99,5.81,1.28,2.47-1.48,4.19-2.51,5.92-3.52.04-.03.26.23.39.36-4.58,5.66-9.16,11.33-13.74,16.99-.16.2-.34.38-.48.59-1.58,2.25-3.61,3.19-6.47,2.96-3.66-.29-7.36-.08-11.22-.11.08-1.79,0-3.69.69-5.28.68-1.6,2.08-2.9,3.23-4.28.94-1.13,3.2-.99,3.11-3.21,0-.13,1.13-.48,1.7-.42,1.71.18,2.53-.66,2.9-2.32Z"/>
      <path class="cls-28" d="M81.44,51.31c-1.55.04-3.09.07-4.81.08-.31-.36-.41-.95-.58-.97-3.29-.41-2.96-3.11-3.4-5.31-.04-.18,0-.37.12-.75.49-1.58-.84-.89-1.26-1.31-.42-.5-.83-1.01-1.43-1.61-.29-.29-.39-.48-.41-.77,1.68-1.44,2.19-3.1,1.58-5.09.54.22,1.09.43,1.63.68,2.48,1.12,4.96,2.25,7.59,3.38.25,1.41.64,2.66,1.22,4.01.73,1.73.33,3.94.32,6.2-.12.48-.14.7-.16.92,0,0-.03.16-.13.26-.18.14-.23.2-.28.28M75.86,44.57c.05-.03.12-.04.16-.08.03-.03.03-.13.03-.13-.66-.17-1.32-.34-1.98-.5-.02.21-.04.42-.06.62.53.03,1.06.07,1.84.09Z"/>
      <path class="cls-54" d="M66.58,43.31c-.13,1.09.29,1.56,1.44,1.7,1.68.21,3.59,2.42,2.99,2.71-1.08.52-2.51.42-3.79.39-.47-.01-.92-.57-1.27-1.05,1.08-1.55.05-1.91-.98-2.08-.99-.16-2.02-.1-3.02-.28.15-.75.28-1.36.57-1.98,1.46.19,2.76.39,4.06.59Z"/>
      <path class="cls-54" d="M69.59,40.77c.1.19.2.38.34.67.11.65.19,1.2.33,2.31-.87-.22-1.55-.4-2.32-.82-2.18-.51-4.27-.76-6.35-1.02,0-1.82,1.68-1.33,2.85-1.89,1.01.36,1.78.73,2.69,1.13.61-.1,1.07-.23,1.54-.31.01.04.11.03.24.02.32-.04.5-.06.68-.09Z"/>
      <path class="cls-5" d="M61.94,44.83c1.01.04,2.04-.02,3.03.14,1.02.17,2.05.53.95,1.95-1.56-.09-2.99-.13-4.39-.37-.86-.15-1.67-.6-2.56-1.05.09-.6.24-1.06.51-1.6.43.18.73.42,1.06.74.02.07.14.17.14.17,0,0,.15-.02.29.03.42.03.7,0,.98-.01Z"/>
      <path class="cls-59" d="M61.53,41.95c2.15.22,4.23.48,6.37.84-.32.25-.7.39-1.2.52-1.43-.2-2.73-.4-4.31-.63-.54-.25-.8-.48-1.07-.7,0,0,.14,0,.2-.04Z"/>
      <path class="cls-3" d="M34.56,44.07c-.54.14-1.1.15-1.82.17-.16.01-.13.01-.14-.06-.11-.06-.21-.05-.44-.07-.8.02-1.48.07-2.16.12.78-.64,1.57-1.29,2.5-1.93.78.54,1.41,1.09,2.06,1.76Z"/>
      <path class="cls-54" d="M71.38,43.08c.56.4,1.88-.29,1.4,1.12q-2.06-.04-1.4-1.12Z"/>
      <path class="cls-6" d="M39.75,44.94c-.23.11-.61.19-1.01.15.27-.14.57-.16,1.01-.15Z"/>
      <path class="cls-52" d="M98.94,98.32c.62,2.9.55,5.95,2.57,8.52.72.92.78,2.49.82,3.77.05,1.66.38,2.84,2.31,3.03.6.06,1.17.45,1.9.71-.71.41-1.56,1.1-2.43,1.12-4.91.11-9.82.06-14.9.04-.38-1.36-.59-2.7-.91-4.26-.9-1.75-2.07-2.56-3.83-2.5-.52-1.84-.54-3.45.63-4.93.17-.21.09-.6.13-.91,1.97-.09,4.03.1,5.63-1.89.78-.25,1.3-.46,1.82-.67-.26-.19-.53-.38-.79-.57.53-.54,1.06-1.08,1.8-1.71,1.8,1.35,3.58.12,5.26.25Z"/>
      <path class="cls-16" d="M125.64,69.73c2.54,2.32,5.07,4.64,7.54,7.13-1.71.93-2.42,2.29-2.62,4.03-.17,1.5-1.07,2.36-2.42,3.08-2.82,1.51-5.75,2.51-9.04,2.65-.93-.87-1.77-1.67-2.66-2.59-2.18-2.42-4.31-4.74-6.44-7.13-.04-.17-.1-.25-.24-.42-.07-.28-.11-.44-.14-.6.03-.07.06-.14.27-.31.88.4,1.52,1.07,2.3,1.36.86.32,1.85.27,2.78.42,2.71.45,7.05-1.74,8.39-4.16.67-1.21,1.52-2.31,2.29-3.46Z"/>
      <path class="cls-47" d="M125.58,69.62c-.72,1.27-1.57,2.37-2.24,3.58-1.33,2.42-5.67,4.61-8.39,4.16-.93-.16-1.92-.1-2.78-.42-.78-.29-1.42-.96-2.25-1.46-.16-3.83-.2-7.65-.07-11.64.45-.06.84-.02.99.19,2.71,3.73,6.48,2.39,8.35-.52,2.11,2,4.22,4,6.38,6.12Z"/>
      <path class="cls-58" d="M105.21,80.06c-.23-.04-.44-.3-.49-.27-1.73,1-3.45,2.04-5.92,3.52-1.31-.29-3.57-.76-5.81-1.28-1.84-.42-2.69,1.09-3.87,1.93-1.09.78-2.13,1.64-3.51.36,1.05-1.49,2.12-2.84,3.3-4.26,1.19-1.76,2.89-1.11,4.53-1.25,1.71-.09,2.33-1.3,3.13-2.5.53-.6.97-1.11,1.42-1.61.47.47.86,1.07,1.41,1.39.87.49,1.94,1.23,2.76,1.06,1.7-.34,3.14-1.34,3.26-3.41.1-1.73.06-3.49.39-5.17.2-1.04.97-1.97,1.6-2.98.07,2.16-.02,4.34-.02,6.53,0,1.17.14,2.35.23,3.52.16,1.95-1.59,2.86-2.42,4.42M98.25,76.35c-.25.16-.51.31-.76.47.15.16.31.31.46.47.16-.25.32-.5.3-.94Z"/>
      <path class="cls-32" d="M85.05,102.89c.14.34.21.73.05.94-1.17,1.48-1.15,3.09-.79,4.96-1.05.06-2.26.25-2.78-.26-1.04-1.02-2.13-1.13-3.4-1.08-1.43.06-2.87.05-4.39-.04-.61-.28-1.14-.45-1.98-.73.26.77.39,1.16.52,1.55-1.31-.63-2.62-1.25-4.07-1.89-.51-1.03-.89-2.05-1.27-3.21,5.98-.18,11.95-.22,18.11-.24Z"/>
      <path class="cls-20" d="M112.47,82.72c-.62,1.58-1.16,3.2-1.86,4.74-.95,2.1-4.87,3.91-7.15,3.41-2.4-.53-3-.08-2.75,2.11-.29.15-.45.13-.63-.02-.27-.85-.53-1.57-.79-2.28,2.66-3.33,5.31-6.68,8.01-9.99.46-.57,1.11-.98,1.9-1.39,1.25,1.19,2.26,2.3,3.28,3.42Z"/>
      <path class="cls-40" d="M119.14,63.39c-1.81,3.02-5.58,4.36-8.29.63-.15-.21-.55-.25-.96-.37-.17-.18-.21-.35-.25-.79.03-.43.05-.6.17-.89.03-1.04-.02-1.96-.09-3.01-.05-.3-.08-.48-.11-.65.04-1.41.07-2.82.14-4.4,1.54.78,3.05,1.71,4.54,2.68.41.27.77.61,1.28.93-.35,2.87,1.96,4.09,3.57,5.86Z"/>
      <path class="cls-30" d="M99.45,42.92c-.78.11-1.45.14-2.45.17-4.53-.01-8.71-.03-12.9-.04-.22-.56-.44-1.12-.71-1.78,5.16-.11,10.36-.11,15.76.04.95.57,1.71.98,2.47,1.38-.68.05-1.37.1-2.16.23Z"/>
      <path class="cls-20" d="M99.06,98.26c-1.81-.07-3.58,1.16-5.32-.3,1.35-1.96,2.85-3.9,4.51-5.87.54.54.91,1.11,1.36,1.78.51.57.94,1.05,1.36,1.52.1,1.38-.69,2.2-1.91,2.87Z"/>
      <path class="cls-30" d="M112.58,82.8c-1.12-1.2-2.14-2.31-3.25-3.52-.04-1.13.02-2.18.18-3.31.14.07.17.24.23.6.07.31.15.38.26.41,2.12,2.31,4.25,4.63,6.39,7.18-.37.56-.76.89-1.15,1.22-.85-.83-1.7-1.66-2.66-2.57Z"/>
      <path class="cls-3" d="M101.78,42.69c-.93-.41-1.69-.82-2.46-1.37,1.53-.17,3.07-.19,4.79-.24.71,0,1.24.05,1.93.11.41.19.66.35,1.44.85-2.16.25-3.84.45-5.7.65Z"/>
      <path class="cls-3" d="M109.48,58.38c.15.11.18.29.2.75,0,1.18.03,2.07.05,2.96-.03.17-.06.34-.11.64-.86,1.1-1.36.13-1.41-.33-.17-1.44-.65-3.07,1.28-4.02Z"/>
      <path class="cls-5" d="M64.27,100.99c1.89,0,3.59,0,5.29,0,0,.09,0,.19,0,.28h-9.38c0-.09-.01-.19-.02-.28,1.31,0,2.61,0,4.11,0Z"/>
      <path class="cls-25" d="M99.53,93.77c-.37-.57-.74-1.15-1.2-1.79.19-.44.47-.82.85-1.25.36.65.62,1.37.88,2.34-.18.41-.36.55-.53.7Z"/>
      <path class="cls-20" d="M91.79,99.85c.35.13.62.32.88.51-.52.21-1.04.41-1.71.6.14-.36.44-.7.83-1.11Z"/>
      <path class="cls-58" d="M107.57,58.95c-.21-.03-.4-.17-.61-.4.2.03.42.16.61.4Z"/>
      <path class="cls-53" d="M73.81,107.52c1.44-.02,2.87,0,4.31-.06,1.28-.06,2.36.06,3.4,1.08.52.51,1.73.33,2.78.42,1.92-.26,3.1.56,3.91,2.2-2.14-.36-4.31-1.11-6.58-.34-.1.03-.29-.02-.35-.1-1.61-2.22-3.98-1.7-6.19-1.77-.29,0-.58-.23-1.05-.5-.2-.41-.21-.67-.23-.92Z"/>
      <path class="cls-31" d="M73.73,107.41c.1.36.11.62.16,1-.43.06-.89,0-1.48-.12-.26-.45-.39-.83-.65-1.61.84.27,1.37.45,1.98.73Z"/>
      <path class="cls-30" d="M43.7,26.49c.42-.5.87-.88,1.44-1.29,3.95,3.95,7.79,7.93,11.56,12-.75-.5-1.42-1.14-2.14-1.7-.72-.56-1.45-.83-1.77.43-1.3-1.48-2.53-3.02-3.91-4.42-1-1.02-2.23-1.81-3.29-2.78-.69-.63-1.24-1.41-1.89-2.24Z"/>
      <path class="cls-3" d="M52.85,36.03c.26-1.37.98-1.1,1.71-.53.72.56,1.38,1.19,2.19,1.8.17.05.22.1.31.23-.3.72-.65,1.34-1.09,2.03-1.08-1.1-2.07-2.26-3.12-3.53Z"/>
      <path class="cls-30" d="M38.45,25.85c-.1-.02-.15-.13-.12-.26.11.05.15.11.12.26Z"/>
      <path class="cls-36" d="M54.46,82.67c-.1-.46-.02-.9.17-1.42.92.3,1.73.67,3.04,1.28-1.31.07-2.17.11-3.21.13Z"/>
      <path class="cls-31" d="M62.74,64.69c1.39-.56,2.51-.25,2.89,1.02.2.66-.14,1.91-.64,2.23-.63.39-1.93.42-2.51,0-1.31-.93-.99-2.16.27-3.26Z"/>
      <path class="cls-13" d="M29.98,29.1c1.96-1.8,2.67-1.64,4.18.86-.23,1.52-.98,2.55-2.49,2.32-1.66-.25-1.9-1.58-1.69-3.18Z"/>
      <path class="cls-40" d="M61.17,41.96c.43.25.69.47,1.07.73-.02.65-.15,1.26-.3,2.01-.29.15-.57.17-1.03.1-.24-.16-.32-.2-.4-.22-.31-.24-.62-.49-1.01-.81-.33-.63-.58-1.17-.6-1.78.42-.07.6-.07.79-.08.43.01.87.02,1.47.06Z"/>
      <path class="cls-54" d="M59.79,41.8c-.27.1-.46.1-.79.1-.48-.79-.82-1.57-1.14-2.5.85.15,1.8.28,2.48.78.9.66.44,1.24-.55,1.63Z"/>
      <path class="cls-15" d="M162.86,40.75c1.97-2.12,3.94-4.25,6.03-6.43,1.31,2.2,3.3,2.67,5.67,2.69,1.87.01,3.82.93,5.58.62,4.54-.8,8.93.35,13.39.51.91.03,1.81.48,2.87.91.13,1.84.1,3.5-.09,5.15-1.6.13-3.04.37-4.48.36-3.27-.04-6.55-.35-9.82-.29-3.2.06-6.38.59-9.58.66-3.37.07-6.55-.57-8.59-3.74-.16-.26-.66-.3-1-.44Z"/>
      <path class="cls-21" d="M196.48,44.21c.03-1.66.05-3.31.08-5.14.27-.5.59-.79.81-1.14,2.86-4.57,8.36-5.22,12.31-1.38,1.68,2.12,2.53,4.36,1.75,7.13-1.07,3.61-3.61,5.24-7.16,5.81-.49-.02-.83-.08-1.42-.19-3.26-.55-4.94-2.67-6.37-5.1h0ZM202.8,46.14c3.15.4,5.51-1.17,5.88-3.93.34-2.46-1.44-4.74-3.99-5.13-2.29-.35-4.46,1.02-5.16,3.25-.77,2.46.25,4.43,3.26,5.81Z"/>
      <path class="cls-57" d="M161.01,68.08c-.31,1.44-1.01,2.34-2.53,2.46-.6.05-1.32.26-1.75.65-2.02,1.86-4.26,3.59-5.85,5.78-1.83,2.51-4.14,2.85-7.07,2.63-1.6-1.36-2.94-2.63-4.36-3.96-.6.65-.92,1.02-1.25,1.38-.58-.03-1.17-.06-1.85-.2.09-1.75.91-2.67,2.63-2.92.55-.08,1.28-.78,1.44-1.33,1.17-4.13,4.1-7.1,6.62-10.34.62-.79,1.31-1.51,2.09-2.32,2.57,1.56,5.03,3.18,7.61,4.85,1.48,1.11,2.84,2.17,4.26,3.34Z"/>
      <path class="cls-3" d="M57.81,28.32c.27-.47.59-.82,1.03-1.22,2.23,2.04,4.33,4.12,6.4,6.39-.43.89-.83,1.6-1.23,2.3-.34-.63-.57-1.35-1.04-1.87-1.66-1.86-3.4-3.66-5.17-5.6Z"/>
      <path class="cls-6" d="M63.95,35.92c.46-.84.86-1.54,1.36-2.33.17-.08.24-.08.39.09.23.7.36,1.23.44,1.89-.83,1.17-.89,2.19.09,3.13,1.07,1.01,2.05.47,3-.08-.15.85-.3,1.56-.45,2.26,0,0-.09,0-.26-.04-.62.06-1.08.18-1.54.29-.76-.37-1.53-.74-2.39-1.17-.3-1.34-.5-2.62-.64-4.04Z"/>
      <path class="cls-30" d="M68.92,40.86c.01-.69.16-1.39.37-2.37.13-.91.19-1.54.28-2.34.19-.69.35-1.22.52-1.76.31.37.62.75,1.05,1.15.72,2.02.21,3.68-1.47,5.12-.26.13-.44.15-.75.19Z"/>
      <path class="cls-5" d="M70.04,34.29c-.11.64-.27,1.17-.57,1.78-1.01-.9-2.02-1.29-3.26-.63-.14-.53-.27-1.07-.4-1.75,1.53-.77,2.93-.69,4.23.59Z"/>
      <path class="cls-31" d="M94.94,40.42c-.09.14-.29.26-.48.38-.04-.08-.08-.17-.12-.25.17-.05.33-.09.6-.13Z"/>
      <path class="cls-50" d="M119.18,86.68c3.2-.2,6.12-1.2,8.95-2.71,1.35-.72,2.25-1.58,2.42-3.08.2-1.74.92-3.09,2.69-3.92,1.51.88,2.35,1.99,1.77,3.83-.18.58.12,1.32.21,2.24.24.55.47.84.7,1.13.4.29.81.58,1.43,1.01,2.29,1.14,3.93.35,5.42-1.09.1.07.2.14.36.28-2.16,2.9-2.45,6.84-5.35,9.31-.5.43-.5,1.45-.73,2.32-1.56.12-3.13.17-4.69.04-.43-.04-.92-.56-1.21-.98-1.22-1.77-2.71-2.73-4.98-2.23-.48.11-1.2-.22-1.61-.58-1.18-1.04-2.26-2.2-3.55-3.48-.73-.81-1.28-1.45-1.84-2.09Z"/>
      <path class="cls-53" d="M142.79,83.95c-1.49,1.58-3.14,2.37-5.3,1.26.3-.58.68-1.06,1.24-1.66,1.45.06,2.44-.41,2.82-1.64.42-1.34-.36-2.24-1.44-2.93-.63-.57-1.26-1.13-1.9-1.83.31-.5.64-.86,1.24-1.51,1.41,1.33,2.76,2.6,4.17,3.98.13,1.11.2,2.11.32,3.28-.35.42-.75.68-1.15,1.07Z"/>
      <path class="cls-20" d="M139.97,78.96c1.23.7,2.01,1.6,1.59,2.94-.39,1.23-1.37,1.7-2.8,1.51-1.16-.76-2.22-1.72-1.49-2.97.43-.74,1.68-1.01,2.71-1.48Z"/>
      <path class="cls-53" d="M135.93,84.04c-.23-.17-.46-.46-.65-.87.24.17.44.46.65.87Z"/>
      <path class="cls-39" d="M84.03,43.08c4.25-.03,8.44-.01,12.8.03-1.56.13-3.3.28-5.04.32-2.46.05-4.92.01-7.56.02-.24-.07-.3-.14-.34-.22,0-.02.06-.07.15-.15Z"/>
      <path class="cls-36" d="M81.92,50.69c-.05-.13-.03-.36.06-.66.05.14.03.36-.06.66Z"/>
      <path class="cls-13" d="M81.51,51.31c-.03-.08.03-.14.16-.21.05.08,0,.16-.16.21Z"/>
      <path class="cls-39" d="M83.98,51.39c.07.06.05.16-.07.32-.09-.06-.07-.17.07-.32Z"/>
      <path class="cls-19" d="M196.32,44.21c1.59,2.43,3.27,4.54,6.4,5.13-.73.31-1.57.56-2.42.75-.29.06-.64-.12-.91-.04-2.69.86-5.32,1.94-8.06,2.57-2.18.5-4.52.8-6.73.56-4.43-.48-8.81-1.42-13.23-2.09-2.23-.34-4.51-.41-6.75-.72-2.22-.3-4.33-.89-5.62-3.03-.18-.29-.77-.33-1.32-.5,1.56-1.99,3.27-3.97,5.08-6.03.44.07.93.11,1.1.37,2.04,3.17,5.22,3.81,8.59,3.74,3.2-.07,6.38-.59,9.58-.66,3.27-.06,6.54.25,9.82.29,1.44.02,2.88-.23,4.48-.36Z"/>
      <path class="cls-1" d="M103.89,103.28c-.12-1.3-.24-2.59-.26-4.11.3-.56.51-.9.79-1.26.16-.09.22-.18.33-.36.32-.28.56-.48.79-.69,1.91-.73,3.62-.48,5.01,1.09,1.21,1.37,1.44,2.94.69,4.59-.83,1.82-2.36,2.61-4.29,2.54-.62-.02-1.22-.44-2.04-.81-.47-.42-.75-.71-1.02-.99h0ZM105.66,100.26c.42.81.66,1.89,1.32,2.32.41.26,1.97-.33,2.11-.81.23-.77.01-2.08-.54-2.59-1.05-.96-2.1-.33-2.89,1.08Z"/>
      <path class="cls-6" d="M119.09,86.62c.65.7,1.2,1.34,1.82,2.09-.48.33-1.03.55-1.7.82-1.37-1.27-2.62-2.6-3.92-4.04.34-.45.73-.78,1.16-1.23.88.68,1.71,1.49,2.64,2.35h0Z"/>
      <path class="cls-53" d="M104.67,97.61c-.02.11-.08.19-.37.29-.44-.01-.69-.06-.93-.1-.72-.75-1.45-1.5-2.28-2.33-.53-.55-.96-1.03-1.47-1.6.09-.24.27-.39.46-.65.18-.11.35-.09.64-.09.63.25,1.13.52,1.7.99.12.31.21.36.34.34.46.73.92,1.46,1.48,2.38.22.39.33.59.44.79Z"/>
      <path class="cls-52" d="M103.76,103.3c.4.26.68.55,1.02.93-.43.11-.93.13-1.44.14.1-.35.19-.7.42-1.07Z"/>
      <path class="cls-20" d="M103.24,97.88c.37-.03.62.01.99.06-.08.33-.29.67-.58,1.08-.24-.3-.39-.68-.41-1.14Z"/>
      <path class="cls-32" d="M104.75,97.54c-.2-.12-.31-.32-.42-.64.3-.11.6-.09,1.06-.06-.08.22-.31.42-.64.7Z"/>
      <path class="cls-20" d="M102.71,94.38c-.09.08-.19.04-.24-.15.09-.04.16.01.24.15Z"/>
      <path class="cls-20" d="M129.01,98.54c-.26.2-.44.27-.67.42-.85-.1-1.83-.05-2.39-.52-.96-.79-.96-2.07.02-2.8.6-.45,1.84-.61,2.5-.29,1.29.61,1.38,1.83.54,3.18Z"/>
      <path class="cls-26" d="M57.26,210.52c-.36.66-.72,1.27-1.24,1.65-.12.09-1.06-.52-1.16-.93-.1-.4.32-1.31.61-1.35.54-.08,1.15.3,1.79.63Z"/>
      <path class="cls-54" d="M29.92,44.36c.75-.17,1.42-.22,2.3-.2.2.07.38.09.38.09,0,0-.03,0-.03.01.26.42.53.82.83,1.35-.58.88-1.08,1.86-1.88,2.31-.38.22-1.72-.42-1.93-.95-.27-.69.14-1.66.33-2.62Z"/>
      <path class="cls-40" d="M92.27,76.89c-.59-.44-1.05-.88-1.6-1.41.46-.96.87-2.03,1.64-2.6.27-.2,1.91.7,2.12,1.35.48,1.51-.48,2.42-2.16,2.66Z"/>
      <path class="cls-54" d="M75.73,44.58c-.66-.03-1.19-.06-1.71-.09.02-.21.04-.42.06-.62.66.17,1.32.33,1.98.5,0,0,0,.1-.03.13-.04.04-.11.06-.29.09Z"/>
      <path class="cls-30" d="M67.13,41.15c.31-.14.77-.25,1.38-.36-.31.13-.77.26-1.38.36Z"/>
      <path class="cls-54" d="M60.54,44.65c.07-.05.14-.01.25.1.04.05-.11.07-.11.07,0,0-.12-.1-.14-.17Z"/>
      <path class="cls-30" d="M32.6,44.18c.01.07-.16.05-.24,0,.02-.06.13-.07.24,0Z"/>
      <path class="cls-31" d="M109.99,76.9c-.11.05-.19-.02-.21-.22.1-.03.17.05.21.22Z"/>
      <path class="cls-7" d="M98.34,76.44c-.07.35-.23.6-.39.85-.15-.16-.31-.31-.46-.47.25-.16.51-.31.85-.38Z"/>
      <path class="cls-31" d="M109.81,61.98c-.1-.78-.12-1.67-.1-2.72.09.76.14,1.68.1,2.72Z"/>
      <path class="cls-59" d="M202.66,46.11c-2.87-1.36-3.89-3.32-3.12-5.78.7-2.23,2.87-3.6,5.16-3.25,2.55.39,4.33,2.67,3.99,5.13-.38,2.75-2.73,4.33-6.03,3.9Z"/>
      <path class="cls-13" d="M66.15,35.57c1.3-.78,2.31-.39,3.29.67.04.72-.02,1.35-.14,2.1-1.01.82-1.99,1.37-3.06.35-.98-.94-.93-1.96-.09-3.13Z"/>
      <path class="cls-32" d="M105.71,100.13c.74-1.28,1.79-1.91,2.84-.95.55.51.77,1.82.54,2.59-.15.48-1.71,1.07-2.11.81-.66-.43-.9-1.51-1.26-2.45Z"/>
      <path class="cls-14" d="M128.62,149.54c-.69,2.36-1.35,4.59-2.11,6.9-.54,1.51-.96,2.92-1.49,4.41-.27.89-.43,1.69-.69,2.6-.22.69-.44,1.37-.64,2.04-.43,1.39-.84,2.76-1.29,4.17-.08.26-.16.52-.24.78-.23.77-.44,1.51-.66,2.31-.08.29-.09.47-.2.74-1.24,3.8-2.39,7.49-3.7,11.71l-19.96,5.72c-1,.32-1.99.64-2.99.96-2.99.96-6,1.93-9.1,2.88-.19.05-.37.11-.54.16-.52.17-1.01.35-1.56.53-1.44.42-2.73.82-4.16,1.2-.89.24-1.65.5-2.56.77-1.74.53-3.33,1.05-5.06,1.55-.13-.01-.25-.03-.37-.04-.21-.03-.38-.08-.53-.16.13-.22.25-.42.37-.61,0-.01,0-.02.02-.02.14-.2.28-.4.45-.62,2.66-2.27,5.29-4.53,7.91-6.76,2.62-2.25,5.25-4.49,7.9-6.74.19-.16.38-.31.55-.46.53-.45,1.03-.9,1.6-1.38,2.06-1.77,4.01-3.48,6.08-5.24.21-.18.4-.35.59-.52.58-.5,1.12-.99,1.73-1.51,3.36-2.81,6.6-5.57,9.95-8.37,5.85-5.04,11.58-10.04,17.44-15.08.53-.37,1.03-.73,1.52-1.07.49-.35.98-.69,1.49-1.02.02,0,.05,0,.08.01.08.02.19.05.17.16Z"/>
      <path class="cls-14" d="M215.21,91.38c.78,28.75-18,52.52-18,52.52l18-52.52Z"/>
    </g>
  </g>
</svg>